<?xml version="1.0" encoding="utf-8"?>
<!-- Generator: Adobe Illustrator 16.0.0, SVG Export Plug-In . SVG Version: 6.00 Build 0)  -->
<!DOCTYPE svg PUBLIC "-//W3C//DTD SVG 1.1//EN" "http://www.w3.org/Graphics/SVG/1.1/DTD/svg11.dtd">
<svg version="1.1" id="Layer_1" xmlns="http://www.w3.org/2000/svg" xmlns:xlink="http://www.w3.org/1999/xlink" x="0px" y="0px"
	 width="1010px" height="412px" viewBox="137.5 165.5 1010 412" enable-background="new 137.5 165.5 1010 412" xml:space="preserve"
	>
<g>
	<path d="M239.659,478.646c-0.851,0-1.607-0.537-1.889-1.34c-2.959-8.455-4.397-24.871-4.397-50.188V293.775
		c0-43.023,12.854-60.295,22.523-69.545c11.316-10.775,24.92-15.793,42.815-15.793c30.685,0,52.954,22.07,52.954,52.479
		c0,21.328-11.361,37.519-23.559,45.188c19.562,5.711,40.703,23.418,40.703,56.724c0,18.853-6.694,34.805-19.358,46.136
		c-11.437,10.232-26.919,15.867-43.598,15.867c-17.996,0-32.336-5.167-43.719-15.777v15.207c0,25.387,1.103,42.854,3.279,51.917
		c0.143,0.597,0.005,1.225-0.374,1.705c-0.379,0.481-0.958,0.762-1.571,0.762L239.659,478.646L239.659,478.646z M262.131,379.662
		c6.85,10.453,20.29,21.17,38.485,21.17c22.021,0,38.002-16.184,38.002-38.479c0-24.584-16.191-39.857-43.313-40.861
		c-0.105-0.004-0.213-0.018-0.318-0.037c-0.582-0.117-1.272-0.173-2.112-0.173c-0.822,0-1.697,0.053-2.544,0.104
		c-0.853,0.053-1.733,0.106-2.571,0.106c-1.104,0-2-0.896-2-2v-17.62c0-1.104,0.896-2,2-2c0.867,0,1.656-0.122,2.42-0.24
		c0.729-0.111,1.481-0.229,2.272-0.234c21.692-1.445,31.404-18.688,31.404-35.147c0-19.028-11.062-31.812-27.524-31.812
		c-28.262,0-34.193,31.802-34.193,58.48v88.578L262.131,379.662z"/>
	<path fill="#FFFFFF" d="M298.712,210.438c28.572,0,50.954,20.479,50.954,50.479c0,21.906-12.383,38.574-25.717,45.242v0.952
		c21.908,4.763,42.861,23.334,42.861,55.719c0,39.05-29.526,60.003-60.956,60.003c-19.524,0-33.812-6.19-44.766-17.619l-0.953-0.476
		v19.523c0,16.668,0.477,40.479,3.334,52.384h-23.812c-3.334-9.522-4.286-29.049-4.286-49.525V293.775
		c0-40.002,10.953-57.623,21.905-68.1C267.281,216.152,280.139,210.438,298.712,210.438 M300.616,402.832
		c23.335,0,40.002-17.145,40.002-40.479c0-28.098-19.523-41.908-45.239-42.86c-0.794-0.159-1.642-0.211-2.505-0.211
		c-1.729,0-3.528,0.211-5.115,0.211v-17.62c1.904,0,3.334-0.477,4.763-0.477c21.906-1.429,33.335-18.573,33.335-37.146
		c0-20.478-12.383-33.812-29.524-33.812c-23.336,0-36.193,20.479-36.193,60.48v88.578h-0.477
		C266.328,390.45,280.615,402.832,300.616,402.832 M298.712,206.438c-18.188,0-32.645,5.346-44.191,16.343
		c-9.94,9.509-23.147,27.206-23.147,70.997V427.12c0,25.545,1.476,42.178,4.511,50.848c0.562,1.604,2.076,2.679,3.775,2.679h23.812
		c1.225,0,2.383-0.562,3.141-1.522c0.76-0.962,1.034-2.219,0.749-3.41c-1.471-6.126-3.224-20.024-3.224-51.45v-10.826
		c11.184,9.003,24.911,13.396,41.719,13.396c17.171,0,33.128-5.816,44.932-16.377c13.101-11.721,20.024-28.189,20.024-47.626
		c0-32.242-19.205-50.349-38.282-57.37c11.337-8.682,21.139-24.416,21.139-44.542c0-15.414-5.677-29.394-15.981-39.365
		C327.613,211.805,313.772,206.438,298.712,206.438z M264.138,379.068v-88.149c0-19.043,2.95-33.567,8.767-43.168
		c5.428-8.958,13.091-13.312,23.428-13.312c15.268,0,25.524,11.979,25.524,29.812c0,21.517-14.789,32.142-29.483,33.147
		c-0.913,0.013-1.753,0.143-2.499,0.258c-0.722,0.111-1.401,0.217-2.114,0.217c-2.209,0-4,1.791-4,4v17.62c0,2.209,1.791,4,4,4
		c0.898,0,1.811-0.056,2.693-0.11c0.854-0.052,1.66-0.102,2.422-0.102c0.707,0,1.27,0.044,1.721,0.134
		c0.21,0.042,0.423,0.067,0.636,0.075c12.329,0.456,22.625,4.005,29.778,10.263c7.704,6.742,11.609,16.364,11.609,28.599
		c0,10.263-3.588,19.562-10.103,26.187c-6.528,6.638-15.728,10.294-25.9,10.294C283.508,398.832,270.79,388.911,264.138,379.068z"/>
	<path d="M408.356,419.717c-10.857,0-18.713-3.266-23.349-9.707c-4.49-6.234-6.769-15.921-6.769-28.787
		c0-26.108,10.658-39.347,31.678-39.347c10.111,0,17.83,2.926,22.94,8.696c5.045,5.703,7.604,14.629,7.604,26.531l-0.006,0.14
		l-0.567,8.095c-0.073,1.047-0.945,1.86-1.995,1.86h-44.826c0.218,6.375,1.502,11.168,3.826,14.266
		c2.429,3.238,6.883,4.88,13.239,4.88c6.962,0,14.146-0.285,21.356-0.846l4.067-0.422l0.206-0.011c0.479,0,0.948,0.173,1.313,0.491
		c0.418,0.364,0.666,0.887,0.686,1.44l0.284,8.379c0.033,1.022-0.708,1.906-1.723,2.048
		C425.478,418.946,416.069,419.717,408.356,419.717z M425.782,374.68c-0.192-7.158-1.45-12.277-3.743-15.234
		c-2.415-3.109-6.355-4.621-12.051-4.621c-5.726,0-9.869,1.623-12.668,4.964c-2.601,3.104-4.068,8.108-4.376,14.891L425.782,374.68
		L425.782,374.68z"/>
	<path fill="#FFFFFF" d="M409.916,343.877c9.562,0,16.709,2.676,21.443,8.021c4.732,5.351,7.101,13.752,7.101,25.205l-0.568,8.096
		h-46.859c0,7.857,1.42,13.681,4.261,17.466c2.84,3.787,7.784,5.68,14.839,5.68c7.051,0,14.222-0.284,21.513-0.852l4.118-0.427
		l0.284,8.379c-10.793,1.513-20.022,2.271-27.69,2.271c-10.224,0-17.466-2.957-21.726-8.875c-4.261-5.915-6.392-15.123-6.392-27.618
		C380.24,356.326,390.131,343.877,409.916,343.877 M390.89,376.68h36.92c0-8.709-1.398-14.861-4.189-18.461
		c-2.793-3.597-7.337-5.396-13.631-5.396c-6.297,0-11.028,1.895-14.201,5.68C392.615,362.29,390.984,368.35,390.89,376.68
		 M409.916,339.877c-11.128,0-19.67,3.65-25.391,10.848c-5.499,6.92-8.287,17.182-8.287,30.498c0,13.482,2.337,23.281,7.146,29.957
		c5.032,6.992,13.435,10.538,24.972,10.538c7.805,0,17.309-0.776,28.246-2.31c2.026-0.284,3.512-2.052,3.442-4.098l-0.284-8.379
		c-0.038-1.107-0.534-2.15-1.37-2.88c-0.731-0.638-1.666-0.983-2.628-0.983c-0.137,0-0.274,0.007-0.412,0.021l-4.067,0.421
		c-7.141,0.554-14.258,0.835-21.15,0.835c-5.693,0-9.608-1.373-11.64-4.08c-1.829-2.438-2.938-6.149-3.314-11.065h42.715
		c2.101,0,3.843-1.625,3.99-3.721l0.567-8.095c0.007-0.093,0.011-0.187,0.011-0.28c0-12.404-2.728-21.776-8.104-27.854
		C428.848,343.029,420.626,339.877,409.916,339.877z M395.078,372.68c0.457-5.262,1.724-9.156,3.775-11.607
		c2.396-2.858,6.038-4.248,11.135-4.248c5.035,0,8.46,1.259,10.473,3.849c1.298,1.675,2.809,5.087,3.231,12.007H395.078
		L395.078,372.68z"/>
	<path d="M477.936,419.858c-7.994,0-13.682-2.071-16.906-6.156c-3.156-3.997-4.689-11.137-4.689-21.829v-35.346h-8.082
		c-1.104,0-2-0.896-2-2v-9.23c0-1.104,0.896-2,2-2h8.082V323.57c0-1.104,0.896-2,2-2h10.508c1.104,0,2,0.896,2,2v19.727h20.578
		c1.104,0,2,0.896,2,2v9.23c0,1.104-0.896,2-2,2h-20.578v31.938c0,9.732,0.864,13.641,1.59,15.205
		c0.817,1.764,3.027,2.664,6.569,2.675l12.568-0.847l0.138-0.004c1.032,0,1.906,0.794,1.99,1.839l0.709,8.804
		c0.084,1.038-0.643,1.966-1.669,2.134C486.233,419.339,481.389,419.858,477.936,419.858z"/>
	<path fill="#FFFFFF" d="M468.847,323.57v21.727h22.578v9.23h-22.578v33.938c0,8.143,0.591,13.49,1.774,16.046
		c1.185,2.557,3.998,3.834,8.449,3.834l12.64-0.852l0.709,8.804c-6.344,1.041-11.172,1.562-14.483,1.562
		c-7.384,0-12.496-1.797-15.337-5.396c-2.84-3.597-4.26-10.459-4.26-20.59v-37.346h-10.082v-9.23h10.082V323.57H468.847
		 M468.847,319.57h-10.508c-2.209,0-4,1.791-4,4v17.727h-6.082c-2.209,0-4,1.791-4,4v9.23c0,2.209,1.791,4,4,4h6.082v33.346
		c0,11.159,1.675,18.705,5.12,23.068c3.622,4.59,9.84,6.917,18.477,6.917c3.562,0,8.513-0.528,15.131-1.614
		c2.055-0.337,3.507-2.193,3.34-4.27l-0.709-8.804c-0.169-2.09-1.917-3.679-3.982-3.679c-0.092,0-0.183,0.003-0.272,0.009
		l-12.498,0.842c-1.554-0.011-4.098-0.231-4.69-1.515c-0.424-0.912-1.405-4.136-1.405-14.365v-29.938h18.578c2.209,0,4-1.791,4-4
		v-9.23c0-2.209-1.791-4-4-4h-18.578v-17.727C472.847,321.361,471.056,319.57,468.847,319.57z"/>
	<path d="M562.425,419.717c-7.369,0-13.18-1.791-17.298-5.326c-8.346,3.535-16.803,5.326-25.159,5.326
		c-7.083,0-12.595-2.08-16.38-6.182c-3.744-4.055-5.644-9.863-5.644-17.262c0-7.455,1.981-13.084,5.891-16.728
		c3.81-3.554,9.742-5.761,17.634-6.562l20.497-1.959v-4.287c0-4.254-0.854-7.268-2.539-8.952c-1.71-1.708-4.034-2.538-7.105-2.538
		c-7.451,0-15.304,0.473-23.342,1.407l-4.44,0.43l-0.191,0.009c-0.478,0-0.94-0.17-1.305-0.484c-0.414-0.355-0.664-0.865-0.692-1.41
		l-0.426-8.094c-0.054-0.992,0.631-1.873,1.604-2.066c10.5-2.1,19.948-3.163,28.082-3.163c8.563,0,14.942,2.063,18.96,6.133
		c4.012,4.062,6.044,10.364,6.044,18.729v36.27c0.09,1.049,0.447,3.579,6.487,4.346c1.038,0.132,1.799,1.041,1.745,2.086
		l-0.426,8.378C564.367,418.882,563.49,419.717,562.425,419.717z M523.138,384.918c-3.735,0.333-6.402,1.357-7.938,3.047
		c-1.54,1.692-2.319,4.297-2.319,7.742c0,5.151,0.999,11.062,8.792,11.062c6.188,0,12.367-1.061,18.369-3.153l1.926-0.669v-19.812
		L523.138,384.918z"/>
	<path fill="#FFFFFF" d="M531.612,343.877c8.045,0,13.893,1.846,17.536,5.538c3.646,3.69,5.468,9.467,5.468,17.324v36.352
		c0.284,3.504,3.028,5.587,8.235,6.248l-0.426,8.378c-7.479,0-13.112-1.893-16.897-5.68c-8.521,3.787-17.04,5.68-25.56,5.68
		c-6.533,0-11.502-1.846-14.91-5.538c-3.408-3.69-5.112-8.992-5.112-15.903c0-6.909,1.751-12,5.254-15.266
		c3.501-3.266,8.993-5.275,16.473-6.035l22.295-2.13v-6.104c0-4.828-1.043-8.283-3.125-10.366c-2.083-2.081-4.923-3.124-8.521-3.124
		c-7.575,0-15.432,0.475-23.572,1.42l-4.401,0.426l-0.426-8.094C514.332,344.92,523.564,343.877,531.612,343.877 M521.671,408.771
		c6.438,0,12.779-1.088,19.027-3.267l3.268-1.136v-23.432l-21.018,1.988c-4.261,0.381-7.337,1.611-9.229,3.692
		c-1.896,2.083-2.841,5.11-2.841,9.088C510.879,404.418,514.476,408.771,521.671,408.771 M531.612,339.877
		c-8.265,0-17.846,1.077-28.475,3.202c-1.947,0.389-3.314,2.149-3.21,4.132l0.426,8.094c0.057,1.09,0.557,2.109,1.384,2.821
		c0.729,0.627,1.656,0.97,2.61,0.97c0.128,0,0.257-0.007,0.385-0.02l4.402-0.426l0.076-0.008c7.962-0.925,15.736-1.394,23.11-1.394
		c2.516,0,4.377,0.64,5.692,1.954c1.275,1.277,1.952,3.884,1.952,7.537v2.469l-18.677,1.784c-8.476,0.86-14.624,3.179-18.818,7.092
		c-4.33,4.036-6.525,10.156-6.525,18.188c0,7.918,2.077,14.182,6.174,18.618c4.181,4.528,10.186,6.825,17.85,6.825
		c8.255,0,16.596-1.688,24.828-5.023c4.401,3.336,10.316,5.023,17.629,5.023c2.13,0,3.887-1.669,3.995-3.797l0.426-8.378
		c0.104-2.089-1.416-3.908-3.491-4.171c-4.246-0.539-4.665-1.836-4.739-2.465v-36.167c0-8.91-2.228-15.685-6.621-20.136
		C547.588,342.141,540.73,339.877,531.612,339.877z M521.671,404.771c-3.286,0-6.792-0.7-6.792-9.063
		c0-2.933,0.604-5.084,1.799-6.396c1.172-1.289,3.464-2.119,6.627-2.4l16.661-1.576v16.19l-0.58,0.202
		C533.593,403.747,527.634,404.771,521.671,404.771z"/>
	<path d="M620.216,418.297c-0.896,0-1.683-0.595-1.925-1.457l-20.022-71c-0.17-0.604-0.048-1.25,0.33-1.75s0.969-0.793,1.595-0.793
		h11.36c0.903,0,1.696,0.607,1.932,1.48l16.215,60.289h2.201l16.775-60.307c0.24-0.865,1.028-1.464,1.927-1.464h10.934
		c0.627,0,1.218,0.293,1.596,0.793s0.5,1.147,0.33,1.75l-20.021,71c-0.243,0.862-1.029,1.457-1.925,1.457L620.216,418.297
		L620.216,418.297z"/>
	<path fill="#FFFFFF" d="M661.536,345.297h0.005 M661.536,345.297l-20.021,71h-21.3l-20.022-71h11.36l16.612,61.771h5.255
		l17.183-61.771H661.536 M661.541,341.297h-0.005h-10.934c-1.796,0-3.372,1.197-3.854,2.928l-15.936,57.285l-15.398-57.252
		c-0.47-1.747-2.054-2.961-3.861-2.961h-11.36c-1.253,0-2.434,0.587-3.188,1.586c-0.757,0.999-1,2.294-0.66,3.5l20.021,71
		c0.486,1.725,2.06,2.915,3.851,2.915h21.3c1.791,0,3.364-1.189,3.85-2.915l19.979-70.846c0.127-0.391,0.195-0.807,0.195-1.24
		C665.539,343.088,663.75,341.297,661.541,341.297z"/>
	<path d="M698.883,419.717c-10.857,0-18.713-3.266-23.35-9.707c-4.489-6.234-6.768-15.921-6.768-28.787
		c0-26.108,10.658-39.347,31.679-39.347c10.111,0,17.829,2.926,22.938,8.697c5.046,5.702,7.604,14.629,7.604,26.53l-0.005,0.141
		l-0.568,8.095c-0.072,1.048-0.944,1.86-1.994,1.86h-44.827c0.218,6.375,1.503,11.168,3.827,14.265
		c2.429,3.239,6.883,4.88,13.238,4.88c6.962,0,14.147-0.285,21.357-0.846l4.067-0.422l0.205-0.011c0.48,0,0.948,0.173,1.314,0.491
		c0.418,0.364,0.666,0.887,0.685,1.44l0.284,8.379c0.034,1.022-0.708,1.906-1.722,2.048
		C716.006,418.946,706.597,419.717,698.883,419.717z M716.311,374.68c-0.193-7.158-1.45-12.279-3.742-15.234
		c-2.416-3.109-6.357-4.621-12.053-4.621c-5.727,0-9.869,1.623-12.666,4.964c-2.604,3.106-4.071,8.11-4.377,14.892H716.311
		L716.311,374.68z"/>
	<path fill="#FFFFFF" d="M700.446,343.877c9.562,0,16.707,2.676,21.441,8.021c4.731,5.351,7.101,13.752,7.101,25.205l-0.567,8.096
		h-46.86c0,7.857,1.42,13.681,4.261,17.466c2.84,3.787,7.785,5.68,14.839,5.68c7.052,0,14.223-0.284,21.514-0.852l4.117-0.427
		l0.284,8.379c-10.792,1.513-20.021,2.271-27.689,2.271c-10.225,0-17.467-2.957-21.727-8.875c-4.26-5.915-6.391-15.123-6.391-27.618
		C670.767,356.326,680.657,343.877,700.446,343.877 M681.416,376.68h36.921c0-8.709-1.397-14.861-4.188-18.461
		c-2.794-3.597-7.338-5.396-13.633-5.396c-6.297,0-11.029,1.895-14.199,5.68C683.144,362.29,681.51,368.35,681.416,376.68
		 M700.446,339.877c-11.128,0-19.671,3.65-25.392,10.848c-5.499,6.92-8.287,17.182-8.287,30.498c0,13.482,2.337,23.281,7.145,29.957
		c5.033,6.992,13.436,10.538,24.973,10.538c7.806,0,17.31-0.776,28.246-2.31c2.025-0.284,3.512-2.052,3.441-4.098l-0.284-8.379
		c-0.038-1.107-0.533-2.15-1.369-2.88c-0.731-0.638-1.666-0.983-2.629-0.983c-0.137,0-0.273,0.007-0.411,0.021l-4.067,0.421
		c-7.141,0.554-14.258,0.835-21.151,0.835c-5.692,0-9.607-1.373-11.639-4.08c-1.829-2.438-2.94-6.149-3.316-11.065h42.717
		c2.101,0,3.843-1.625,3.989-3.721l0.568-8.095c0.007-0.093,0.01-0.187,0.01-0.28c0-12.403-2.727-21.775-8.104-27.854
		C719.375,343.029,711.155,339.877,700.446,339.877z M685.607,372.68c0.457-5.262,1.722-9.156,3.776-11.607
		c2.394-2.859,6.035-4.249,11.133-4.249c5.036,0,8.462,1.259,10.474,3.85c1.298,1.673,2.809,5.085,3.232,12.007H685.607
		L685.607,372.68z"/>
	<path d="M745.6,418.297c-1.104,0-2-0.896-2-2v-71c0-1.104,0.896-2,2-2h10.509c1.104,0,2,0.896,2,2v5.953
		c7.505-4.676,15.427-7.859,23.597-9.477c0.129-0.024,0.261-0.037,0.39-0.037c0.459,0,0.907,0.158,1.27,0.455
		c0.463,0.379,0.73,0.947,0.73,1.545v10.791c0,0.961-0.683,1.785-1.625,1.965c-3.854,0.734-7.923,1.898-12.101,3.459
		c-4.196,1.568-7.433,2.963-9.617,4.146l-2.502,1.301v50.899c0,1.104-0.896,2-2,2L745.6,418.297L745.6,418.297z"/>
	<path fill="#FFFFFF" d="M782.094,343.734v10.793c-3.977,0.759-8.118,1.94-12.425,3.55c-4.31,1.61-7.598,3.03-9.869,4.26
		l-3.55,1.847v52.113H745.6v-71h10.509v9.656C764.344,349.271,773.006,345.534,782.094,343.734 M782.094,339.734
		c-0.259,0-0.52,0.025-0.776,0.076c-7.306,1.446-14.414,4.105-21.209,7.928v-2.442c0-2.209-1.791-4-4-4H745.6c-2.209,0-4,1.791-4,4
		v71c0,2.209,1.791,4,4,4h10.65c2.209,0,4-1.791,4-4v-49.687l1.396-0.726l0.058-0.03c2.104-1.139,5.256-2.496,9.366-4.031
		c4.07-1.521,8.032-2.654,11.774-3.368c1.886-0.36,3.25-2.009,3.25-3.929v-10.793c0-1.196-0.536-2.33-1.461-3.09
		C783.91,340.052,783.012,339.734,782.094,339.734z"/>
	<path d="M816.883,419.717c-5.95,0-13.036-0.678-21.062-2.016l-4.26-0.71c-1.01-0.168-1.73-1.073-1.667-2.097l0.568-9.229
		c0.033-0.56,0.302-1.079,0.736-1.431c0.358-0.291,0.805-0.446,1.259-0.446c0.1,0,0.196,0.007,0.295,0.021
		c10.639,1.588,18.757,2.393,24.13,2.393c5.095,0,8.974-0.786,11.529-2.337c2.268-1.375,3.368-3.695,3.368-7.095
		c0-3.392-0.889-5.569-2.718-6.662c-1.533-0.912-5.465-2.336-15.479-3.93c-8.728-1.389-14.816-3.412-18.613-6.183
		c-4.031-2.94-6.075-8.263-6.075-15.815c0-7.58,2.755-13.297,8.188-16.99c5.189-3.527,11.707-5.316,19.371-5.316
		c5.845,0,13.255,0.677,22.026,2.011l4.027,0.718c0.978,0.174,1.679,1.039,1.646,2.031l-0.284,9.088
		c-0.018,0.569-0.276,1.104-0.713,1.469c-0.363,0.305-0.819,0.469-1.286,0.469c-0.095,0-0.189-0.008-0.285-0.021
		c-10.374-1.494-18.639-2.252-24.564-2.252c-12.08,0-13.479,5.018-13.479,8.792c0,3.425,1.457,4.664,2.553,5.3
		c1.479,0.857,5.373,2.252,15.528,4.02c8.824,1.539,14.959,3.682,18.755,6.552c4.015,3.04,6.049,8.593,6.049,16.505
		c0,7.933-2.644,13.875-7.854,17.664C833.566,417.868,826.266,419.717,816.883,419.717z"/>
	<path fill="#FFFFFF" d="M816.456,343.877c5.773,0,13.016,0.663,21.727,1.988l3.977,0.71l-0.284,9.088
		c-10.508-1.515-18.793-2.272-24.851-2.272c-10.319,0-15.478,3.6-15.478,10.793c0,3.314,1.183,5.657,3.55,7.028
		c2.364,1.373,7.762,2.793,16.188,4.261c8.424,1.469,14.39,3.527,17.893,6.176c3.501,2.651,5.254,7.623,5.254,14.91
		c0,7.291-2.343,12.64-7.029,16.047c-4.686,3.407-11.526,5.111-20.519,5.111c-5.871,0-12.78-0.663-20.732-1.988l-4.26-0.71
		l0.568-9.229c10.791,1.61,18.933,2.414,24.424,2.414c5.488,0,9.678-0.874,12.566-2.627c2.888-1.751,4.331-4.688,4.331-8.806
		c0-4.117-1.23-6.908-3.691-8.377c-2.464-1.467-7.858-2.862-16.188-4.188c-8.331-1.325-14.248-3.267-17.75-5.822
		c-3.503-2.556-5.254-7.288-5.254-14.2c0-6.908,2.438-12.021,7.312-15.336C803.084,345.534,809.166,343.877,816.456,343.877
		 M816.456,339.877c-8.071,0-14.968,1.905-20.494,5.662c-6.017,4.089-9.065,10.361-9.065,18.645c0,8.228,2.32,14.092,6.896,17.432
		c4.059,2.962,10.431,5.102,19.479,6.541c10.21,1.625,13.637,3,14.771,3.676c1.151,0.688,1.737,2.352,1.737,4.939
		c0,3.479-1.285,4.705-2.405,5.386c-2.238,1.357-5.77,2.047-10.492,2.047c-5.274,0-13.293-0.797-23.833-2.37
		c-0.197-0.029-0.396-0.044-0.592-0.044c-0.909,0-1.8,0.311-2.517,0.891c-0.872,0.706-1.407,1.744-1.476,2.863l-0.568,9.229
		c-0.126,2.045,1.312,3.854,3.335,4.191l4.26,0.71c8.133,1.355,15.33,2.042,21.391,2.042c9.813,0,17.51-1.978,22.871-5.877
		c5.757-4.186,8.677-10.673,8.677-19.281c0-8.572-2.302-14.662-6.839-18.099c-4.06-3.067-10.477-5.334-19.619-6.929
		c-10.389-1.807-13.773-3.144-14.868-3.778c-0.508-0.294-1.558-0.901-1.558-3.569c0-2.205,0-6.793,11.478-6.793
		c5.832,0,14.001,0.752,24.28,2.231c0.189,0.026,0.381,0.041,0.57,0.041c0.935,0,1.847-0.328,2.57-0.937
		c0.872-0.731,1.393-1.801,1.427-2.938l0.284-9.089c0.062-1.983-1.341-3.713-3.295-4.062l-3.977-0.71l-0.103-0.017
		C829.912,340.561,822.402,339.877,816.456,339.877z"/>
	<path d="M860.76,418.297c-1.104,0-2-0.896-2-2v-71c0-1.104,0.896-2,2-2h10.649c1.104,0,2,0.896,2,2v71c0,1.104-0.896,2-2,2H860.76z
		 M860.76,331.251c-1.104,0-2-0.896-2-2v-12.354c0-1.104,0.896-2,2-2h10.649c1.104,0,2,0.896,2,2v12.354c0,1.104-0.896,2-2,2H860.76
		z"/>
	<path fill="#FFFFFF" d="M871.409,316.896v12.354H860.76v-12.354H871.409 M871.409,345.297v71H860.76v-71H871.409 M871.409,312.896
		H860.76c-2.209,0-4,1.791-4,4v12.354c0,2.209,1.791,4,4,4h10.649c2.209,0,4-1.791,4-4v-12.354
		C875.409,314.688,873.618,312.896,871.409,312.896z M871.409,341.297H860.76c-2.209,0-4,1.791-4,4v71c0,2.209,1.791,4,4,4h10.649
		c2.209,0,4-1.791,4-4v-71C875.409,343.088,873.618,341.297,871.409,341.297z"/>
	<path d="M919.121,419.717c-12.166,0-20.731-3.233-25.463-9.611c-4.66-6.28-6.926-15.914-6.926-29.449
		c0-13.375,2.489-23.256,7.398-29.369c5.016-6.244,13.446-9.41,25.061-9.41c11.615,0,20.025,3.168,24.996,9.417
		c4.857,6.112,7.321,15.99,7.321,29.36c0,13.347-2.33,23.255-6.927,29.449C939.852,416.483,931.284,419.717,919.121,419.717z
		 M919.193,355.105c-6.712,0-11.322,1.701-13.706,5.053c-2.533,3.564-3.817,10.389-3.817,20.283c0,9.951,1.169,16.938,3.476,20.766
		c2.108,3.504,6.835,5.28,14.049,5.28c7.208,0,11.91-1.751,13.976-5.204c2.262-3.785,3.408-10.773,3.408-20.771
		c0-9.943-1.265-16.797-3.758-20.367C930.481,356.802,925.896,355.105,919.193,355.105z"/>
	<path fill="#FFFFFF" d="M919.193,343.877c11.027,0,18.838,2.889,23.431,8.662c4.592,5.775,6.888,15.146,6.888,28.115
		c0,12.972-2.179,22.39-6.532,28.259c-4.354,5.87-12.308,8.804-23.854,8.804c-11.552,0-19.503-2.934-23.856-8.804
		c-4.355-5.869-6.532-15.287-6.532-28.259c0-12.969,2.319-22.34,6.958-28.115C900.328,346.766,908.162,343.877,919.193,343.877
		 M919.193,408.487c7.999,0,13.229-2.061,15.691-6.179c2.461-4.117,3.691-11.382,3.691-21.797c0-10.412-1.374-17.582-4.118-21.513
		c-2.746-3.929-7.835-5.894-15.266-5.894c-7.433,0-12.544,1.965-15.336,5.894c-2.793,3.931-4.188,11.076-4.188,21.44
		c0,10.367,1.253,17.634,3.763,21.799C905.938,406.405,911.193,408.487,919.193,408.487 M919.193,339.877
		c-12.249,0-21.205,3.417-26.619,10.157c-5.274,6.567-7.84,16.584-7.84,30.621c0,13.981,2.396,24.004,7.32,30.642
		c5.127,6.914,14.233,10.42,27.067,10.42c12.831,0,21.938-3.506,27.067-10.42c4.926-6.64,7.32-16.663,7.32-30.641
		c0-14.029-2.537-24.04-7.756-30.605C940.384,343.299,931.448,339.877,919.193,339.877z M919.193,404.487
		c-6.464,0-10.613-1.45-12.334-4.312c-1.456-2.416-3.189-7.799-3.189-19.734c0-11.795,1.876-16.912,3.448-19.125
		c1.985-2.793,6.049-4.211,12.075-4.211c6.012,0,10.045,1.408,11.988,4.187c1.548,2.217,3.396,7.354,3.396,19.22
		c0,11.996-1.699,17.358-3.126,19.745C929.772,403.064,925.648,404.487,919.193,404.487z"/>
	<path d="M1012.842,418.297c-1.104,0-2-0.896-2-2v-37.204c0-9.463-0.9-15.956-2.678-19.296c-1.58-2.964-5.066-4.406-10.658-4.406
		c-2.842,0-5.894,0.432-9.068,1.282c-3.238,0.867-5.729,1.709-7.398,2.502l-1.556,0.736v56.386c0,1.104-0.896,2-2,2h-10.65
		c-1.104,0-2-0.896-2-2v-71c0-1.104,0.896-2,2-2h10.51c1.104,0,2,0.896,2,2v1.667c6.893-3.378,13.608-5.087,20.01-5.087
		c10.148,0,17.143,2.891,20.784,8.591c3.509,5.491,5.214,14.761,5.214,28.341v37.487c0,1.104-0.896,2-2,2L1012.842,418.297
		L1012.842,418.297z"/>
	<path fill="#FFFFFF" d="M999.352,343.877c9.465,0,15.833,2.557,19.099,7.668c3.268,5.112,4.899,14.2,4.899,27.264v37.488h-10.508
		v-37.204c0-9.845-0.974-16.59-2.911-20.235c-1.941-3.643-6.084-5.467-12.425-5.467c-3.031,0-6.228,0.45-9.586,1.351
		c-3.361,0.899-5.941,1.774-7.738,2.627l-2.698,1.276v57.652h-10.649v-71h10.509v4.971
		C985.01,346.007,992.345,343.877,999.352,343.877 M999.352,339.877c-5.88,0-11.995,1.367-18.243,4.07
		c-0.554-1.545-2.031-2.65-3.767-2.65h-10.51c-2.209,0-4,1.791-4,4v71c0,2.209,1.791,4,4,4h10.65c2.209,0,4-1.791,4-4v-55.119
		l0.41-0.195c1.564-0.741,3.939-1.541,7.062-2.377c3.008-0.806,5.885-1.213,8.552-1.213c4.718,0,7.711,1.125,8.895,3.348
		c1.113,2.092,2.441,6.979,2.441,18.354v37.204c0,2.209,1.791,4,4,4h10.508c2.209,0,4-1.791,4-4v-37.487
		c0-13.974-1.809-23.596-5.528-29.418C1017.787,343.078,1010.229,339.877,999.352,339.877z"/>
</g>
</svg>
