<?xml version="1.0" encoding="utf-8"?>
<!-- Generator: Adobe Illustrator 16.0.0, SVG Export Plug-In . SVG Version: 6.00 Build 0)  -->
<!DOCTYPE svg PUBLIC "-//W3C//DTD SVG 1.1//EN" "http://www.w3.org/Graphics/SVG/1.1/DTD/svg11.dtd">
<svg version="1.1" id="Layer_1" xmlns="http://www.w3.org/2000/svg" xmlns:xlink="http://www.w3.org/1999/xlink" x="0px" y="0px"
	 width="49.891px" height="50px" viewBox="0 0 49.891 50" enable-background="new 0 0 49.891 50" xml:space="preserve">
<circle fill-rule="evenodd" clip-rule="evenodd" fill="#CFE4F1" stroke="#6AB9EE" stroke-width="1.5" cx="24.836" cy="25.198" r="20.7"/>
<circle fill-rule="evenodd" clip-rule="evenodd" fill="#CFE4F1" cx="-29.164" cy="25.198" r="20.7"/>
<path fill-rule="evenodd" clip-rule="evenodd" d="M-37.061,30c-0.729,0-1.424,0-2.143,0c0-0.508,0-0.992,0-1.51
	c0.098-0.004,0.204-0.014,0.311-0.014c0.628-0.002,1.257-0.01,1.885,0.004c0.206,0.004,0.297-0.053,0.343-0.262
	c0.655-3.048,1.319-6.095,1.98-9.142c0.238-1.098,0.476-2.197,0.72-3.32c-0.272,0-0.52,0-0.787,0c0-0.504,0-0.988,0-1.514
	c0.272,0,0.541-0.021,0.803,0.006c0.258,0.026,0.34-0.08,0.39-0.315c0.356-1.686,0.726-3.37,1.092-5.054
	c0.017-0.077,0.04-0.153,0.065-0.25c0.771,0,1.536,0,2.326,0c0-0.338,0-0.653,0-0.992c0.578,0,1.131,0,1.72,0
	c0,0.309,0,0.632,0,0.982c0.828,0,1.622,0,2.443,0c0.41,1.884,0.816,3.747,1.226,5.625c0.377,0,0.724,0,1.096,0
	c0,0.502,0,0.984,0,1.501c-0.243,0-0.486,0-0.767,0c0.144,0.672,0.277,1.303,0.414,1.934c0.753,3.466,1.511,6.93,2.253,10.398
	c0.066,0.312,0.174,0.424,0.502,0.406c0.577-0.031,1.156-0.01,1.735-0.01c0.107,0,0.215,0,0.33,0c0,0.521,0,1.006,0,1.518
	c-0.712,0-1.406,0-2.141,0c0.724,3.328,1.439,6.623,2.159,9.938c-0.709,0-1.394,0-2.091,0c-0.021-0.064-0.06-0.129-0.061-0.193
	c-0.009-0.506-0.303-0.773-0.718-1.023c-2.022-1.223-4.025-2.475-6.036-3.717c-0.091-0.057-0.186-0.107-0.322-0.188
	c0,1.725,0,3.412,0,5.117c-0.589,0-1.142,0-1.726,0c0-1.678,0-3.348,0-5.066c-0.135,0.074-0.229,0.123-0.318,0.178
	c-2.02,1.246-4.033,2.5-6.062,3.732c-0.351,0.211-0.591,0.445-0.606,0.865c-0.009,0.248-0.124,0.326-0.379,0.316
	c-0.587-0.023-1.176-0.008-1.797-0.008C-38.5,36.621-37.783,33.326-37.061,30z M-28.032,33.588c2.101,1.299,4.161,2.57,6.282,3.881
	c-0.503-2.314-0.992-4.562-1.488-6.842C-24.855,31.625-26.42,32.592-28.032,33.588z M-35.087,30.627
	c-0.497,2.283-0.984,4.527-1.487,6.842c2.129-1.314,4.19-2.588,6.283-3.881C-31.906,32.592-33.473,31.623-35.087,30.627z
	 M-33.292,22.373c-0.329,1.517-0.651,2.997-0.986,4.536c1.384-0.871,2.719-1.71,4.091-2.573
	C-31.229,23.676-32.242,23.036-33.292,22.373z M-25.025,22.401c-1.042,0.656-2.04,1.285-3.071,1.934
	c1.35,0.853,2.662,1.681,4.048,2.556C-24.384,25.354-24.697,23.908-25.025,22.401z M-23.767,28.453
	c0.007-0.018,0.013-0.035,0.019-0.053c-1.515-0.957-3.03-1.914-4.568-2.884c0,1.009,0,1.976,0,2.937
	C-26.782,28.453-25.274,28.453-23.767,28.453z M-30.08,25.583c-1.524,0.96-3,1.89-4.477,2.82c0.009,0.018,0.018,0.035,0.025,0.053
	c1.479,0,2.958,0,4.451,0C-30.08,27.503-30.08,26.57-30.08,25.583z M-28.334,32.379c1.283-0.793,2.519-1.557,3.818-2.359
	c-1.331,0-2.57,0-3.818,0C-28.334,30.799-28.334,31.557-28.334,32.379z M-30.079,30.016c-1.235,0-2.442,0-3.738,0
	c1.282,0.791,2.492,1.537,3.738,2.307C-30.079,31.521-30.079,30.779-30.079,30.016z M-28.328,11.342c0,0.975,0,1.919,0,2.876
	c0.505,0,0.994,0,1.523,0c-0.214-0.98-0.42-1.929-0.626-2.876C-27.743,11.342-28.021,11.342-28.328,11.342z M-32.048,16.643
	c-0.218,1.007-0.426,1.97-0.649,3.006c0.926-0.584,1.779-1.123,2.682-1.692C-30.707,17.509-31.355,17.091-32.048,16.643z
	 M-28.283,17.962c0.9,0.579,1.754,1.127,2.666,1.714c-0.225-1.034-0.434-1.99-0.649-2.984
	C-26.945,17.12-27.591,17.526-28.283,17.962z M-30.082,14.229c0-0.977,0-1.921,0-2.878c-0.28,0-0.543,0-0.815,0
	c-0.209,0.964-0.413,1.913-0.622,2.878C-31.02,14.229-30.563,14.229-30.082,14.229z M-25.448,20.896
	c-0.997-0.642-1.925-1.239-2.869-1.848c0,0.65,0,1.252,0,1.848C-27.373,20.896-26.453,20.896-25.448,20.896z M-30.078,19.092
	c-0.962,0.607-1.876,1.184-2.848,1.797c1.008,0,1.928,0,2.848,0C-30.078,20.292-30.078,19.719-30.078,19.092z M-28.327,23.162
	c0.702-0.442,1.354-0.853,2.078-1.309c-0.745,0-1.404,0-2.078,0C-28.327,22.277-28.327,22.689-28.327,23.162z M-32.024,21.853
	c0.688,0.435,1.302,0.822,1.938,1.225c0-0.439,0-0.83,0-1.225C-30.717,21.853-31.326,21.853-32.024,21.853z M-28.33,16.896
	c0.608-0.384,1.166-0.736,1.77-1.117c-0.633,0-1.202,0-1.77,0C-28.33,16.149-28.33,16.495-28.33,16.896z M-30.088,16.797
	c0-0.373,0-0.7,0-1.027c-0.522,0-1.021,0-1.596,0C-31.121,16.132-30.619,16.456-30.088,16.797z"/>
<path fill-rule="evenodd" clip-rule="evenodd" fill="none" d="M-28.032,29.875c1.612-0.996,3.177-1.963,4.794-2.962
	c0.496,2.28,0.985,4.527,1.488,6.843C-23.871,32.445-25.932,31.173-28.032,29.875z"/>
<path fill-rule="evenodd" clip-rule="evenodd" fill="none" d="M-35.087,26.913c1.614,0.997,3.181,1.965,4.796,2.962
	c-2.093,1.292-4.154,2.565-6.283,3.881C-36.071,31.44-35.584,29.197-35.087,26.913z"/>
<path fill-rule="evenodd" clip-rule="evenodd" fill="none" d="M-33.292,20.66c1.05,0.663,2.062,1.304,3.104,1.962
	c-1.372,0.864-2.707,1.704-4.091,2.575C-33.943,23.657-33.621,22.177-33.292,20.66z"/>
<path fill-rule="evenodd" clip-rule="evenodd" fill="none" d="M-25.025,20.688c0.328,1.507,0.642,2.953,0.977,4.491
	c-1.386-0.875-2.698-1.704-4.048-2.556C-27.065,21.974-26.067,21.345-25.025,20.688z"/>
<path fill-rule="evenodd" clip-rule="evenodd" fill="none" d="M-23.767,26.742c-1.508,0-3.016,0-4.55,0c0-0.962,0-1.928,0-2.938
	c1.538,0.971,3.054,1.928,4.568,2.885C-23.754,26.707-23.76,26.725-23.767,26.742z"/>
<path fill-rule="evenodd" clip-rule="evenodd" fill="none" d="M-30.08,23.871c0,0.988,0,1.921,0,2.874c-1.493,0-2.973,0-4.451,0
	c-0.008-0.018-0.017-0.036-0.025-0.054C-33.08,25.761-31.604,24.831-30.08,23.871z"/>
<path fill-rule="evenodd" clip-rule="evenodd" fill="none" d="M-28.334,28.666c0-0.823,0-1.58,0-2.36c1.248,0,2.487,0,3.818,0
	C-25.815,27.109-27.051,27.872-28.334,28.666z"/>
<path fill-rule="evenodd" clip-rule="evenodd" fill="none" d="M-30.079,26.302c0,0.764,0,1.506,0,2.308
	c-1.246-0.77-2.456-1.516-3.738-2.308C-32.521,26.302-31.314,26.302-30.079,26.302z"/>
<path fill-rule="evenodd" clip-rule="evenodd" fill="none" d="M-28.328,9.63c0.308,0,0.585,0,0.897,0
	c0.206,0.947,0.412,1.896,0.626,2.876c-0.529,0-1.019,0-1.523,0C-28.328,11.549-28.328,10.605-28.328,9.63z"/>
<path fill-rule="evenodd" clip-rule="evenodd" fill="none" d="M-32.048,14.931c0.692,0.448,1.341,0.866,2.032,1.313
	c-0.902,0.569-1.756,1.108-2.682,1.692C-32.474,16.9-32.266,15.938-32.048,14.931z"/>
<path fill-rule="evenodd" clip-rule="evenodd" fill="none" d="M-28.283,16.25c0.692-0.436,1.338-0.842,2.017-1.27
	c0.216,0.994,0.425,1.95,0.649,2.984C-26.529,17.377-27.383,16.829-28.283,16.25z"/>
<path fill-rule="evenodd" clip-rule="evenodd" fill="none" d="M-30.082,12.517c-0.481,0-0.938,0-1.438,0
	c0.209-0.965,0.413-1.914,0.622-2.878c0.272,0,0.535,0,0.815,0C-30.082,10.595-30.082,11.54-30.082,12.517z"/>
<path fill-rule="evenodd" clip-rule="evenodd" fill="none" d="M-25.448,19.184c-1.005,0-1.925,0-2.869,0c0-0.596,0-1.197,0-1.848
	C-27.373,17.944-26.445,18.542-25.448,19.184z"/>
<path fill-rule="evenodd" clip-rule="evenodd" fill="none" d="M-30.078,17.38c0,0.626,0,1.2,0,1.797c-0.92,0-1.84,0-2.848,0
	C-31.954,18.564-31.04,17.987-30.078,17.38z"/>
<path fill-rule="evenodd" clip-rule="evenodd" fill="none" d="M-28.327,21.45c0-0.473,0-0.885,0-1.309c0.674,0,1.333,0,2.078,0
	C-26.973,20.597-27.625,21.007-28.327,21.45z"/>
<path fill-rule="evenodd" clip-rule="evenodd" fill="none" d="M-32.024,20.14c0.698,0,1.308,0,1.938,0c0,0.395,0,0.786,0,1.225
	C-30.723,20.962-31.337,20.575-32.024,20.14z"/>
<path fill-rule="evenodd" clip-rule="evenodd" fill="none" d="M-28.33,15.183c0-0.4,0-0.747,0-1.117c0.567,0,1.137,0,1.77,0
	C-27.164,14.447-27.722,14.799-28.33,15.183z"/>
<path fill-rule="evenodd" clip-rule="evenodd" fill="none" d="M-30.088,15.085c-0.531-0.342-1.033-0.665-1.596-1.027
	c0.574,0,1.073,0,1.596,0C-30.088,14.385-30.088,14.712-30.088,15.085z"/>
<path fill-rule="evenodd" clip-rule="evenodd" fill="#6AB9EE" d="M16.939,30c-0.729,0-1.424,0-2.143,0c0-0.508,0-0.992,0-1.51
	c0.098-0.004,0.204-0.014,0.311-0.014c0.628-0.002,1.257-0.01,1.885,0.004c0.206,0.004,0.297-0.053,0.343-0.262
	c0.655-3.048,1.319-6.095,1.98-9.142c0.238-1.098,0.476-2.197,0.72-3.32c-0.272,0-0.52,0-0.787,0c0-0.504,0-0.988,0-1.514
	c0.272,0,0.541-0.021,0.803,0.006c0.258,0.026,0.34-0.08,0.39-0.315c0.356-1.686,0.726-3.37,1.092-5.054
	c0.017-0.077,0.04-0.153,0.065-0.25c0.771,0,1.536,0,2.326,0c0-0.338,0-0.653,0-0.992c0.578,0,1.131,0,1.72,0
	c0,0.309,0,0.632,0,0.982c0.828,0,1.622,0,2.443,0c0.41,1.884,0.816,3.747,1.226,5.625c0.377,0,0.724,0,1.096,0
	c0,0.502,0,0.984,0,1.501c-0.243,0-0.486,0-0.767,0c0.144,0.672,0.277,1.303,0.414,1.934c0.753,3.466,1.511,6.93,2.253,10.398
	c0.066,0.312,0.174,0.424,0.502,0.406c0.577-0.031,1.156-0.01,1.735-0.01c0.107,0,0.215,0,0.33,0c0,0.521,0,1.006,0,1.518
	c-0.712,0-1.406,0-2.141,0c0.724,3.328,1.439,6.623,2.159,9.938c-0.709,0-1.394,0-2.091,0c-0.021-0.064-0.06-0.129-0.061-0.193
	c-0.009-0.506-0.303-0.773-0.718-1.023c-2.022-1.223-4.025-2.475-6.036-3.717c-0.091-0.057-0.186-0.107-0.322-0.188
	c0,1.725,0,3.412,0,5.117c-0.589,0-1.142,0-1.726,0c0-1.678,0-3.348,0-5.066c-0.135,0.074-0.229,0.123-0.318,0.178
	c-2.02,1.246-4.033,2.5-6.062,3.732c-0.351,0.211-0.591,0.445-0.606,0.865c-0.009,0.248-0.124,0.326-0.379,0.316
	c-0.587-0.023-1.176-0.008-1.797-0.008C15.5,36.621,16.217,33.326,16.939,30z M25.968,33.588c2.101,1.299,4.161,2.57,6.282,3.881
	c-0.503-2.314-0.992-4.562-1.488-6.842C29.145,31.625,27.58,32.592,25.968,33.588z M18.913,30.627
	c-0.497,2.283-0.984,4.527-1.487,6.842c2.129-1.314,4.19-2.588,6.283-3.881C22.094,32.592,20.527,31.623,18.913,30.627z
	 M20.708,22.373c-0.329,1.517-0.651,2.997-0.986,4.536c1.384-0.871,2.719-1.71,4.091-2.573
	C22.771,23.676,21.758,23.036,20.708,22.373z M28.975,22.401c-1.042,0.656-2.04,1.285-3.071,1.934
	c1.35,0.853,2.662,1.681,4.048,2.556C29.616,25.354,29.303,23.908,28.975,22.401z M30.233,28.453
	c0.007-0.018,0.013-0.035,0.019-0.053c-1.515-0.957-3.03-1.914-4.568-2.884c0,1.009,0,1.976,0,2.937
	C27.218,28.453,28.726,28.453,30.233,28.453z M23.92,25.583c-1.524,0.96-3,1.89-4.477,2.82c0.009,0.018,0.018,0.035,0.025,0.053
	c1.479,0,2.958,0,4.451,0C23.92,27.503,23.92,26.57,23.92,25.583z M25.666,32.379c1.283-0.793,2.519-1.557,3.818-2.359
	c-1.331,0-2.57,0-3.818,0C25.666,30.799,25.666,31.557,25.666,32.379z M23.921,30.016c-1.235,0-2.442,0-3.738,0
	c1.282,0.791,2.492,1.537,3.738,2.307C23.921,31.521,23.921,30.779,23.921,30.016z M25.672,11.342c0,0.975,0,1.919,0,2.876
	c0.505,0,0.994,0,1.523,0c-0.214-0.98-0.42-1.929-0.626-2.876C26.257,11.342,25.979,11.342,25.672,11.342z M21.952,16.643
	c-0.218,1.007-0.426,1.97-0.649,3.006c0.926-0.584,1.779-1.123,2.682-1.692C23.293,17.509,22.645,17.091,21.952,16.643z
	 M25.717,17.962c0.9,0.579,1.754,1.127,2.666,1.714c-0.225-1.034-0.434-1.99-0.649-2.984C27.055,17.12,26.409,17.526,25.717,17.962z
	 M23.918,14.229c0-0.977,0-1.921,0-2.878c-0.28,0-0.543,0-0.815,0c-0.209,0.964-0.413,1.913-0.622,2.878
	C22.98,14.229,23.437,14.229,23.918,14.229z M28.552,20.896c-0.997-0.642-1.925-1.239-2.869-1.848c0,0.65,0,1.252,0,1.848
	C26.627,20.896,27.547,20.896,28.552,20.896z M23.922,19.092c-0.962,0.607-1.876,1.184-2.848,1.797c1.008,0,1.928,0,2.848,0
	C23.922,20.292,23.922,19.719,23.922,19.092z M25.673,23.162c0.702-0.442,1.354-0.853,2.078-1.309c-0.745,0-1.404,0-2.078,0
	C25.673,22.277,25.673,22.689,25.673,23.162z M21.976,21.853c0.688,0.435,1.302,0.822,1.938,1.225c0-0.439,0-0.83,0-1.225
	C23.283,21.853,22.674,21.853,21.976,21.853z M25.67,16.896c0.608-0.384,1.166-0.736,1.77-1.117c-0.633,0-1.202,0-1.77,0
	C25.67,16.149,25.67,16.495,25.67,16.896z M23.912,16.797c0-0.373,0-0.7,0-1.027c-0.522,0-1.021,0-1.596,0
	C22.879,16.132,23.381,16.456,23.912,16.797z"/>
<path fill-rule="evenodd" clip-rule="evenodd" fill="none" d="M25.968,29.875c1.612-0.996,3.177-1.963,4.794-2.962
	c0.496,2.28,0.985,4.527,1.488,6.843C30.129,32.445,28.068,31.173,25.968,29.875z"/>
<path fill-rule="evenodd" clip-rule="evenodd" fill="none" d="M18.913,26.913c1.614,0.997,3.181,1.965,4.796,2.962
	c-2.093,1.292-4.154,2.565-6.283,3.881C17.929,31.44,18.416,29.197,18.913,26.913z"/>
<path fill-rule="evenodd" clip-rule="evenodd" fill="none" d="M20.708,20.66c1.05,0.663,2.062,1.304,3.104,1.962
	c-1.372,0.864-2.707,1.704-4.091,2.575C20.057,23.657,20.379,22.177,20.708,20.66z"/>
<path fill-rule="evenodd" clip-rule="evenodd" fill="none" d="M28.975,20.688c0.328,1.507,0.642,2.953,0.977,4.491
	c-1.386-0.875-2.698-1.704-4.048-2.556C26.935,21.974,27.933,21.345,28.975,20.688z"/>
<path fill-rule="evenodd" clip-rule="evenodd" fill="none" d="M30.233,26.742c-1.508,0-3.016,0-4.55,0c0-0.962,0-1.928,0-2.938
	c1.538,0.971,3.054,1.928,4.568,2.885C30.246,26.707,30.24,26.725,30.233,26.742z"/>
<path fill-rule="evenodd" clip-rule="evenodd" fill="none" d="M23.92,23.871c0,0.988,0,1.921,0,2.874c-1.493,0-2.973,0-4.451,0
	c-0.008-0.018-0.017-0.036-0.025-0.054C20.92,25.761,22.396,24.831,23.92,23.871z"/>
<path fill-rule="evenodd" clip-rule="evenodd" fill="none" d="M25.666,28.666c0-0.823,0-1.58,0-2.36c1.248,0,2.487,0,3.818,0
	C28.185,27.109,26.949,27.872,25.666,28.666z"/>
<path fill-rule="evenodd" clip-rule="evenodd" fill="none" d="M23.921,26.302c0,0.764,0,1.506,0,2.308
	c-1.246-0.77-2.456-1.516-3.738-2.308C21.479,26.302,22.686,26.302,23.921,26.302z"/>
<path fill-rule="evenodd" clip-rule="evenodd" fill="none" d="M25.672,9.63c0.308,0,0.585,0,0.897,0
	c0.206,0.947,0.412,1.896,0.626,2.876c-0.529,0-1.019,0-1.523,0C25.672,11.549,25.672,10.605,25.672,9.63z"/>
<path fill-rule="evenodd" clip-rule="evenodd" fill="none" d="M21.952,14.931c0.692,0.448,1.341,0.866,2.032,1.313
	c-0.902,0.569-1.756,1.108-2.682,1.692C21.526,16.9,21.734,15.938,21.952,14.931z"/>
<path fill-rule="evenodd" clip-rule="evenodd" fill="none" d="M25.717,16.25c0.692-0.436,1.338-0.842,2.017-1.27
	c0.216,0.994,0.425,1.95,0.649,2.984C27.471,17.377,26.617,16.829,25.717,16.25z"/>
<path fill-rule="evenodd" clip-rule="evenodd" fill="none" d="M23.918,12.517c-0.481,0-0.938,0-1.438,0
	c0.209-0.965,0.413-1.914,0.622-2.878c0.272,0,0.535,0,0.815,0C23.918,10.595,23.918,11.54,23.918,12.517z"/>
<path fill-rule="evenodd" clip-rule="evenodd" fill="none" d="M28.552,19.184c-1.005,0-1.925,0-2.869,0c0-0.596,0-1.197,0-1.848
	C26.627,17.944,27.555,18.542,28.552,19.184z"/>
<path fill-rule="evenodd" clip-rule="evenodd" fill="none" d="M23.922,17.38c0,0.626,0,1.2,0,1.797c-0.92,0-1.84,0-2.848,0
	C22.046,18.564,22.96,17.987,23.922,17.38z"/>
<path fill-rule="evenodd" clip-rule="evenodd" fill="none" d="M25.673,21.45c0-0.473,0-0.885,0-1.309c0.674,0,1.333,0,2.078,0
	C27.027,20.597,26.375,21.007,25.673,21.45z"/>
<path fill-rule="evenodd" clip-rule="evenodd" fill="none" d="M21.976,20.14c0.698,0,1.308,0,1.938,0c0,0.395,0,0.786,0,1.225
	C23.277,20.962,22.663,20.575,21.976,20.14z"/>
<path fill-rule="evenodd" clip-rule="evenodd" fill="none" d="M25.67,15.183c0-0.4,0-0.747,0-1.117c0.567,0,1.137,0,1.77,0
	C26.836,14.447,26.278,14.799,25.67,15.183z"/>
<path fill-rule="evenodd" clip-rule="evenodd" fill="none" d="M23.912,15.085c-0.531-0.342-1.033-0.665-1.596-1.027
	c0.574,0,1.073,0,1.596,0C23.912,14.385,23.912,14.712,23.912,15.085z"/>
<circle fill-rule="evenodd" clip-rule="evenodd" fill="#6AB9EE" cx="79.461" cy="25.198" r="20.7"/>
<path fill-rule="evenodd" clip-rule="evenodd" fill="#FFFFFF" d="M71.564,30c-0.729,0-1.424,0-2.143,0c0-0.508,0-0.992,0-1.51
	c0.098-0.004,0.204-0.014,0.311-0.014c0.628-0.002,1.257-0.01,1.885,0.004c0.206,0.004,0.297-0.053,0.343-0.262
	c0.655-3.048,1.319-6.095,1.98-9.142c0.238-1.098,0.476-2.197,0.72-3.32c-0.272,0-0.52,0-0.787,0c0-0.504,0-0.988,0-1.514
	c0.272,0,0.541-0.021,0.803,0.006c0.258,0.026,0.34-0.08,0.39-0.315c0.356-1.686,0.726-3.37,1.092-5.054
	c0.017-0.077,0.04-0.153,0.065-0.25c0.771,0,1.536,0,2.326,0c0-0.338,0-0.653,0-0.992c0.578,0,1.131,0,1.72,0
	c0,0.309,0,0.632,0,0.982c0.828,0,1.622,0,2.443,0c0.41,1.884,0.816,3.747,1.226,5.625c0.377,0,0.724,0,1.096,0
	c0,0.502,0,0.984,0,1.501c-0.243,0-0.486,0-0.767,0c0.144,0.672,0.277,1.303,0.414,1.934c0.753,3.466,1.511,6.93,2.253,10.398
	c0.066,0.312,0.174,0.424,0.502,0.406c0.577-0.031,1.156-0.01,1.735-0.01c0.107,0,0.215,0,0.33,0c0,0.521,0,1.006,0,1.518
	c-0.712,0-1.406,0-2.141,0c0.724,3.328,1.439,6.623,2.159,9.938c-0.709,0-1.394,0-2.091,0c-0.021-0.064-0.06-0.129-0.061-0.193
	c-0.009-0.506-0.303-0.773-0.718-1.023c-2.022-1.223-4.025-2.475-6.036-3.717c-0.091-0.057-0.186-0.107-0.322-0.188
	c0,1.725,0,3.412,0,5.117c-0.589,0-1.142,0-1.726,0c0-1.678,0-3.348,0-5.066c-0.135,0.074-0.229,0.123-0.318,0.178
	c-2.02,1.246-4.033,2.5-6.062,3.732c-0.351,0.211-0.591,0.445-0.606,0.865c-0.009,0.248-0.124,0.326-0.379,0.316
	c-0.587-0.023-1.176-0.008-1.797-0.008C70.125,36.621,70.842,33.326,71.564,30z M80.593,33.588c2.101,1.299,4.161,2.57,6.282,3.881
	c-0.503-2.314-0.992-4.562-1.488-6.842C83.77,31.625,82.205,32.592,80.593,33.588z M73.538,30.627
	c-0.497,2.283-0.984,4.527-1.487,6.842c2.129-1.314,4.19-2.588,6.283-3.881C76.719,32.592,75.152,31.623,73.538,30.627z
	 M75.333,22.373c-0.329,1.517-0.651,2.997-0.986,4.536c1.384-0.871,2.719-1.71,4.091-2.573
	C77.396,23.676,76.383,23.036,75.333,22.373z M83.6,22.401c-1.042,0.656-2.04,1.285-3.071,1.934c1.35,0.853,2.662,1.681,4.048,2.556
	C84.241,25.354,83.928,23.908,83.6,22.401z M84.858,28.453c0.007-0.018,0.013-0.035,0.019-0.053
	c-1.515-0.957-3.03-1.914-4.568-2.884c0,1.009,0,1.976,0,2.937C81.843,28.453,83.351,28.453,84.858,28.453z M78.545,25.583
	c-1.524,0.96-3,1.89-4.477,2.82c0.009,0.018,0.018,0.035,0.025,0.053c1.479,0,2.958,0,4.451,0
	C78.545,27.503,78.545,26.57,78.545,25.583z M80.291,32.379c1.283-0.793,2.519-1.557,3.818-2.359c-1.331,0-2.57,0-3.818,0
	C80.291,30.799,80.291,31.557,80.291,32.379z M78.546,30.016c-1.235,0-2.442,0-3.738,0c1.282,0.791,2.492,1.537,3.738,2.307
	C78.546,31.521,78.546,30.779,78.546,30.016z M80.297,11.342c0,0.975,0,1.919,0,2.876c0.505,0,0.994,0,1.523,0
	c-0.214-0.98-0.42-1.929-0.626-2.876C80.882,11.342,80.604,11.342,80.297,11.342z M76.577,16.643
	c-0.218,1.007-0.426,1.97-0.649,3.006c0.926-0.584,1.779-1.123,2.682-1.692C77.918,17.509,77.27,17.091,76.577,16.643z
	 M80.342,17.962c0.9,0.579,1.754,1.127,2.666,1.714c-0.225-1.034-0.434-1.99-0.649-2.984C81.68,17.12,81.034,17.526,80.342,17.962z
	 M78.543,14.229c0-0.977,0-1.921,0-2.878c-0.28,0-0.543,0-0.815,0c-0.209,0.964-0.413,1.913-0.622,2.878
	C77.605,14.229,78.062,14.229,78.543,14.229z M83.177,20.896c-0.997-0.642-1.925-1.239-2.869-1.848c0,0.65,0,1.252,0,1.848
	C81.252,20.896,82.172,20.896,83.177,20.896z M78.547,19.092c-0.962,0.607-1.876,1.184-2.848,1.797c1.008,0,1.928,0,2.848,0
	C78.547,20.292,78.547,19.719,78.547,19.092z M80.298,23.162c0.702-0.442,1.354-0.853,2.078-1.309c-0.745,0-1.404,0-2.078,0
	C80.298,22.277,80.298,22.689,80.298,23.162z M76.601,21.853c0.688,0.435,1.302,0.822,1.938,1.225c0-0.439,0-0.83,0-1.225
	C77.908,21.853,77.299,21.853,76.601,21.853z M80.295,16.896c0.608-0.384,1.166-0.736,1.77-1.117c-0.633,0-1.202,0-1.77,0
	C80.295,16.149,80.295,16.495,80.295,16.896z M78.537,16.797c0-0.373,0-0.7,0-1.027c-0.522,0-1.021,0-1.596,0
	C77.504,16.132,78.006,16.456,78.537,16.797z"/>
<path fill-rule="evenodd" clip-rule="evenodd" fill="none" d="M80.593,29.875c1.612-0.996,3.177-1.963,4.794-2.962
	c0.496,2.28,0.985,4.527,1.488,6.843C84.754,32.445,82.693,31.173,80.593,29.875z"/>
<path fill-rule="evenodd" clip-rule="evenodd" fill="none" d="M73.538,26.913c1.614,0.997,3.181,1.965,4.796,2.962
	c-2.093,1.292-4.154,2.565-6.283,3.881C72.554,31.44,73.041,29.197,73.538,26.913z"/>
<path fill-rule="evenodd" clip-rule="evenodd" fill="none" d="M75.333,20.66c1.05,0.663,2.062,1.304,3.104,1.962
	c-1.372,0.864-2.707,1.704-4.091,2.575C74.682,23.657,75.004,22.177,75.333,20.66z"/>
<path fill-rule="evenodd" clip-rule="evenodd" fill="none" d="M83.6,20.688c0.328,1.507,0.642,2.953,0.977,4.491
	c-1.386-0.875-2.698-1.704-4.048-2.556C81.56,21.974,82.558,21.345,83.6,20.688z"/>
<path fill-rule="evenodd" clip-rule="evenodd" fill="none" d="M84.858,26.742c-1.508,0-3.016,0-4.55,0c0-0.962,0-1.928,0-2.938
	c1.538,0.971,3.054,1.928,4.568,2.885C84.871,26.707,84.865,26.725,84.858,26.742z"/>
<path fill-rule="evenodd" clip-rule="evenodd" fill="none" d="M78.545,23.871c0,0.988,0,1.921,0,2.874c-1.493,0-2.973,0-4.451,0
	c-0.008-0.018-0.017-0.036-0.025-0.054C75.545,25.761,77.021,24.831,78.545,23.871z"/>
<path fill-rule="evenodd" clip-rule="evenodd" fill="none" d="M80.291,28.666c0-0.823,0-1.58,0-2.36c1.248,0,2.487,0,3.818,0
	C82.81,27.109,81.574,27.872,80.291,28.666z"/>
<path fill-rule="evenodd" clip-rule="evenodd" fill="none" d="M78.546,26.302c0,0.764,0,1.506,0,2.308
	c-1.246-0.77-2.456-1.516-3.738-2.308C76.104,26.302,77.311,26.302,78.546,26.302z"/>
<path fill-rule="evenodd" clip-rule="evenodd" fill="none" d="M80.297,9.63c0.308,0,0.585,0,0.897,0
	c0.206,0.947,0.412,1.896,0.626,2.876c-0.529,0-1.019,0-1.523,0C80.297,11.549,80.297,10.605,80.297,9.63z"/>
<path fill-rule="evenodd" clip-rule="evenodd" fill="none" d="M76.577,14.931c0.692,0.448,1.341,0.866,2.032,1.313
	c-0.902,0.569-1.756,1.108-2.682,1.692C76.151,16.9,76.359,15.938,76.577,14.931z"/>
<path fill-rule="evenodd" clip-rule="evenodd" fill="none" d="M80.342,16.25c0.692-0.436,1.338-0.842,2.017-1.27
	c0.216,0.994,0.425,1.95,0.649,2.984C82.096,17.377,81.242,16.829,80.342,16.25z"/>
<path fill-rule="evenodd" clip-rule="evenodd" fill="none" d="M78.543,12.517c-0.481,0-0.938,0-1.438,0
	c0.209-0.965,0.413-1.914,0.622-2.878c0.272,0,0.535,0,0.815,0C78.543,10.595,78.543,11.54,78.543,12.517z"/>
<path fill-rule="evenodd" clip-rule="evenodd" fill="none" d="M83.177,19.184c-1.005,0-1.925,0-2.869,0c0-0.596,0-1.197,0-1.848
	C81.252,17.944,82.18,18.542,83.177,19.184z"/>
<path fill-rule="evenodd" clip-rule="evenodd" fill="none" d="M78.547,17.38c0,0.626,0,1.2,0,1.797c-0.92,0-1.84,0-2.848,0
	C76.671,18.564,77.585,17.987,78.547,17.38z"/>
<path fill-rule="evenodd" clip-rule="evenodd" fill="none" d="M80.298,21.45c0-0.473,0-0.885,0-1.309c0.674,0,1.333,0,2.078,0
	C81.652,20.597,81,21.007,80.298,21.45z"/>
<path fill-rule="evenodd" clip-rule="evenodd" fill="none" d="M76.601,20.14c0.698,0,1.308,0,1.938,0c0,0.395,0,0.786,0,1.225
	C77.902,20.962,77.288,20.575,76.601,20.14z"/>
<path fill-rule="evenodd" clip-rule="evenodd" fill="none" d="M80.295,15.183c0-0.4,0-0.747,0-1.117c0.567,0,1.137,0,1.77,0
	C81.461,14.447,80.903,14.799,80.295,15.183z"/>
<path fill-rule="evenodd" clip-rule="evenodd" fill="none" d="M78.537,15.085c-0.531-0.342-1.033-0.665-1.596-1.027
	c0.574,0,1.073,0,1.596,0C78.537,14.385,78.537,14.712,78.537,15.085z"/>
</svg>
