<?xml version="1.0" encoding="utf-8"?>
<!-- Generator: Adobe Illustrator 16.0.0, SVG Export Plug-In . SVG Version: 6.00 Build 0)  -->
<!DOCTYPE svg PUBLIC "-//W3C//DTD SVG 1.1//EN" "http://www.w3.org/Graphics/SVG/1.1/DTD/svg11.dtd">
<svg version="1.1" id="Layer_1" xmlns="http://www.w3.org/2000/svg" xmlns:xlink="http://www.w3.org/1999/xlink" x="0px" y="0px"
	 width="49.891px" height="50px" viewBox="0 0 49.891 50" enable-background="new 0 0 49.891 50" xml:space="preserve">
<circle fill="#FFFFFF" stroke="#231F20" stroke-width="1.5" cx="24.836" cy="25.198" r="20.7"/>
<path fill="#231F20" d="M16.939,30c-0.729,0-1.424,0-2.143,0c0-0.508,0-0.992,0-1.51c0.098-0.004,0.204-0.014,0.311-0.014
	c0.628-0.002,1.257-0.011,1.886,0.004c0.205,0.004,0.297-0.054,0.343-0.263c0.655-3.048,1.318-6.095,1.979-9.142
	c0.238-1.098,0.477-2.197,0.721-3.32c-0.272,0-0.521,0-0.787,0c0-0.504,0-0.988,0-1.514c0.271,0,0.541-0.021,0.803,0.006
	c0.258,0.026,0.34-0.08,0.39-0.315c0.356-1.686,0.727-3.37,1.093-5.054c0.017-0.077,0.039-0.153,0.064-0.25c0.771,0,1.536,0,2.326,0
	c0-0.338,0-0.653,0-0.992c0.578,0,1.131,0,1.72,0c0,0.309,0,0.632,0,0.982c0.828,0,1.622,0,2.443,0
	c0.41,1.884,0.815,3.747,1.226,5.625c0.377,0,0.725,0,1.097,0c0,0.502,0,0.984,0,1.501c-0.243,0-0.486,0-0.768,0
	c0.145,0.672,0.277,1.303,0.414,1.934c0.753,3.466,1.511,6.93,2.253,10.398c0.066,0.312,0.174,0.424,0.502,0.405
	c0.577-0.03,1.156-0.01,1.735-0.01c0.106,0,0.215,0,0.33,0c0,0.521,0,1.006,0,1.519c-0.712,0-1.406,0-2.142,0
	c0.725,3.327,1.439,6.623,2.159,9.938c-0.709,0-1.394,0-2.091,0c-0.021-0.064-0.06-0.13-0.061-0.193
	c-0.01-0.506-0.304-0.773-0.719-1.023c-2.021-1.223-4.024-2.475-6.036-3.717c-0.091-0.057-0.186-0.107-0.321-0.188
	c0,1.725,0,3.411,0,5.116c-0.589,0-1.143,0-1.727,0c0-1.678,0-3.348,0-5.065c-0.135,0.074-0.229,0.123-0.317,0.178
	c-2.021,1.246-4.033,2.5-6.062,3.732c-0.351,0.211-0.591,0.444-0.605,0.864c-0.01,0.248-0.124,0.326-0.379,0.316
	c-0.588-0.023-1.177-0.009-1.798-0.009C15.5,36.621,16.217,33.326,16.939,30z M25.968,33.588c2.101,1.299,4.161,2.57,6.282,3.881
	c-0.503-2.313-0.992-4.562-1.488-6.842C29.145,31.625,27.58,32.592,25.968,33.588z M18.913,30.627
	c-0.497,2.283-0.984,4.527-1.487,6.842c2.129-1.313,4.19-2.588,6.283-3.881C22.094,32.592,20.527,31.623,18.913,30.627z
	 M20.708,22.373c-0.329,1.517-0.651,2.997-0.986,4.536c1.384-0.871,2.719-1.71,4.091-2.573
	C22.771,23.676,21.758,23.036,20.708,22.373z M28.975,22.401c-1.042,0.656-2.04,1.285-3.071,1.934
	c1.351,0.853,2.662,1.681,4.049,2.556C29.616,25.354,29.303,23.908,28.975,22.401z M30.233,28.453
	c0.008-0.018,0.014-0.035,0.02-0.053c-1.516-0.957-3.03-1.914-4.568-2.885c0,1.01,0,1.977,0,2.938
	C27.218,28.453,28.726,28.453,30.233,28.453z M23.92,25.583c-1.524,0.96-3,1.89-4.478,2.819c0.01,0.019,0.019,0.035,0.025,0.054
	c1.479,0,2.958,0,4.451,0C23.92,27.503,23.92,26.57,23.92,25.583z M25.666,32.379c1.283-0.793,2.519-1.557,3.817-2.359
	c-1.331,0-2.569,0-3.817,0C25.666,30.799,25.666,31.557,25.666,32.379z M23.921,30.016c-1.235,0-2.442,0-3.738,0
	c1.282,0.791,2.492,1.537,3.738,2.308C23.921,31.521,23.921,30.779,23.921,30.016z M25.672,11.342c0,0.975,0,1.919,0,2.876
	c0.505,0,0.994,0,1.522,0c-0.214-0.98-0.42-1.929-0.626-2.876C26.257,11.342,25.979,11.342,25.672,11.342z M21.952,16.643
	c-0.219,1.007-0.427,1.97-0.649,3.006c0.926-0.584,1.779-1.123,2.682-1.692C23.293,17.509,22.645,17.091,21.952,16.643z
	 M25.717,17.962c0.9,0.579,1.754,1.127,2.666,1.714c-0.225-1.034-0.434-1.99-0.649-2.984C27.055,17.12,26.409,17.526,25.717,17.962z
	 M23.918,14.229c0-0.977,0-1.921,0-2.878c-0.28,0-0.543,0-0.815,0c-0.209,0.964-0.413,1.913-0.622,2.878
	C22.98,14.229,23.437,14.229,23.918,14.229z M28.552,20.896c-0.997-0.642-1.925-1.239-2.869-1.848c0,0.65,0,1.252,0,1.848
	C26.627,20.896,27.547,20.896,28.552,20.896z M23.922,19.092c-0.962,0.607-1.876,1.184-2.848,1.797c1.008,0,1.928,0,2.848,0
	C23.922,20.292,23.922,19.719,23.922,19.092z M25.673,23.162c0.702-0.442,1.354-0.853,2.078-1.309c-0.745,0-1.404,0-2.078,0
	C25.673,22.277,25.673,22.689,25.673,23.162z M21.976,21.853c0.688,0.435,1.302,0.822,1.938,1.225c0-0.439,0-0.83,0-1.225
	C23.283,21.853,22.674,21.853,21.976,21.853z M25.67,16.896c0.607-0.384,1.166-0.736,1.77-1.117c-0.633,0-1.202,0-1.77,0
	C25.67,16.149,25.67,16.495,25.67,16.896z M23.912,16.797c0-0.373,0-0.7,0-1.027c-0.522,0-1.021,0-1.597,0
	C22.879,16.132,23.381,16.456,23.912,16.797z"/>
<path fill="none" d="M25.968,29.875c1.612-0.996,3.177-1.963,4.794-2.962c0.496,2.28,0.985,4.526,1.488,6.843
	C30.129,32.445,28.068,31.173,25.968,29.875z"/>
<path fill="none" d="M18.913,26.913c1.613,0.997,3.181,1.965,4.796,2.962c-2.093,1.292-4.154,2.564-6.283,3.881
	C17.929,31.439,18.416,29.197,18.913,26.913z"/>
<path fill="none" d="M20.708,20.66c1.05,0.663,2.062,1.304,3.104,1.962c-1.372,0.864-2.707,1.704-4.091,2.575
	C20.057,23.657,20.379,22.177,20.708,20.66z"/>
<path fill="none" d="M28.975,20.688c0.328,1.507,0.643,2.953,0.978,4.491c-1.387-0.875-2.698-1.704-4.049-2.556
	C26.935,21.974,27.933,21.345,28.975,20.688z"/>
<path fill="none" d="M30.233,26.742c-1.508,0-3.016,0-4.55,0c0-0.962,0-1.928,0-2.938c1.538,0.971,3.054,1.928,4.568,2.885
	C30.246,26.707,30.24,26.725,30.233,26.742z"/>
<path fill="none" d="M23.92,23.871c0,0.988,0,1.921,0,2.874c-1.493,0-2.974,0-4.451,0c-0.008-0.019-0.017-0.036-0.025-0.054
	C20.92,25.761,22.396,24.831,23.92,23.871z"/>
<path fill="none" d="M25.666,28.666c0-0.823,0-1.58,0-2.359c1.248,0,2.486,0,3.817,0C28.185,27.109,26.949,27.872,25.666,28.666z"/>
<path fill="none" d="M23.921,26.302c0,0.765,0,1.507,0,2.308c-1.246-0.77-2.456-1.516-3.738-2.308
	C21.479,26.302,22.686,26.302,23.921,26.302z"/>
<path fill="none" d="M25.672,9.63c0.308,0,0.585,0,0.896,0c0.206,0.947,0.412,1.896,0.626,2.876c-0.528,0-1.019,0-1.522,0
	C25.672,11.549,25.672,10.605,25.672,9.63z"/>
<path fill="none" d="M21.952,14.931c0.691,0.448,1.341,0.866,2.031,1.313c-0.901,0.569-1.756,1.108-2.682,1.692
	C21.526,16.9,21.734,15.938,21.952,14.931z"/>
<path fill="none" d="M25.717,16.25c0.692-0.436,1.338-0.842,2.017-1.27c0.217,0.994,0.426,1.95,0.649,2.984
	C27.471,17.377,26.617,16.829,25.717,16.25z"/>
<path fill="none" d="M23.918,12.517c-0.481,0-0.938,0-1.438,0c0.209-0.965,0.413-1.914,0.622-2.878c0.272,0,0.535,0,0.815,0
	C23.918,10.595,23.918,11.54,23.918,12.517z"/>
<path fill="none" d="M28.552,19.184c-1.005,0-1.925,0-2.869,0c0-0.596,0-1.197,0-1.848C26.627,17.944,27.555,18.542,28.552,19.184z"
	/>
<path fill="none" d="M23.922,17.38c0,0.626,0,1.2,0,1.797c-0.92,0-1.84,0-2.848,0C22.046,18.564,22.96,17.987,23.922,17.38z"/>
<path fill="none" d="M25.673,21.45c0-0.473,0-0.885,0-1.309c0.674,0,1.333,0,2.078,0C27.027,20.597,26.375,21.007,25.673,21.45z"/>
<path fill="none" d="M21.976,20.14c0.698,0,1.309,0,1.938,0c0,0.395,0,0.786,0,1.225C23.277,20.962,22.663,20.575,21.976,20.14z"/>
<path fill="none" d="M25.67,15.183c0-0.4,0-0.747,0-1.117c0.566,0,1.137,0,1.77,0C26.836,14.447,26.278,14.799,25.67,15.183z"/>
<path fill="none" d="M23.912,15.085c-0.531-0.342-1.033-0.665-1.597-1.027c0.574,0,1.073,0,1.597,0
	C23.912,14.385,23.912,14.712,23.912,15.085z"/>
</svg>
