<?xml version="1.0" encoding="utf-8"?>
<!-- Generator: Adobe Illustrator 16.0.0, SVG Export Plug-In . SVG Version: 6.00 Build 0)  -->
<!DOCTYPE svg PUBLIC "-//W3C//DTD SVG 1.1//EN" "http://www.w3.org/Graphics/SVG/1.1/DTD/svg11.dtd">
<svg version="1.1" id="Layer_1" xmlns="http://www.w3.org/2000/svg" xmlns:xlink="http://www.w3.org/1999/xlink" x="0px" y="0px"
	 width="49.891px" height="50px" viewBox="0 0 49.891 50" enable-background="new 0 0 49.891 50" xml:space="preserve">
<circle fill="#FFFFFF" stroke="#231F20" stroke-width="2" cx="24.836" cy="25.198" r="20.7"/>
<path fill="none" d="M25.967,29.875c1.612-0.996,3.178-1.963,4.795-2.962c0.495,2.28,0.984,4.526,1.487,6.843
	C30.128,32.445,28.068,31.173,25.967,29.875z"/>
<path fill="none" d="M18.913,26.913c1.614,0.997,3.182,1.965,4.796,2.962c-2.093,1.292-4.153,2.564-6.283,3.881
	C17.928,31.439,18.416,29.197,18.913,26.913z"/>
<path fill="none" d="M20.708,20.66c1.05,0.663,2.062,1.304,3.104,1.962c-1.372,0.864-2.707,1.704-4.091,2.575
	C20.056,23.657,20.378,22.177,20.708,20.66z"/>
<path fill="none" d="M28.974,20.688c0.327,1.507,0.642,2.953,0.977,4.491c-1.386-0.875-2.698-1.704-4.048-2.556
	C26.934,21.974,27.932,21.345,28.974,20.688z"/>
<path fill="none" d="M30.233,26.742c-1.508,0-3.017,0-4.55,0c0-0.962,0-1.928,0-2.938c1.538,0.971,3.054,1.928,4.567,2.885
	C30.246,26.707,30.24,26.725,30.233,26.742z"/>
<path fill="none" d="M23.919,23.871c0,0.988,0,1.921,0,2.874c-1.493,0-2.973,0-4.451,0c-0.008-0.019-0.017-0.036-0.024-0.054
	C20.919,25.761,22.395,24.831,23.919,23.871z"/>
<path fill="none" d="M25.666,28.666c0-0.823,0-1.58,0-2.359c1.248,0,2.487,0,3.818,0C28.184,27.109,26.949,27.872,25.666,28.666z"/>
<path fill="none" d="M23.92,26.302c0,0.765,0,1.507,0,2.308c-1.246-0.77-2.456-1.516-3.737-2.308
	C21.478,26.302,22.685,26.302,23.92,26.302z"/>
<path fill="none" d="M25.671,9.63c0.309,0,0.585,0,0.897,0c0.206,0.947,0.412,1.896,0.626,2.876c-0.529,0-1.02,0-1.523,0
	C25.671,11.549,25.671,10.605,25.671,9.63z"/>
<path fill="none" d="M21.952,14.931c0.692,0.448,1.341,0.866,2.032,1.313c-0.902,0.569-1.756,1.108-2.683,1.692
	C21.526,16.9,21.734,15.938,21.952,14.931z"/>
<path fill="none" d="M25.716,16.25c0.692-0.436,1.339-0.842,2.018-1.27c0.216,0.994,0.425,1.95,0.648,2.984
	C27.47,17.377,26.617,16.829,25.716,16.25z"/>
<path fill="none" d="M23.917,12.517c-0.48,0-0.938,0-1.438,0c0.209-0.965,0.413-1.914,0.622-2.878c0.271,0,0.535,0,0.814,0
	C23.917,10.595,23.917,11.54,23.917,12.517z"/>
<path fill="none" d="M28.551,19.184c-1.005,0-1.925,0-2.868,0c0-0.596,0-1.197,0-1.848C26.626,17.944,27.554,18.542,28.551,19.184z"
	/>
<path fill="none" d="M23.921,17.38c0,0.626,0,1.2,0,1.797c-0.92,0-1.84,0-2.848,0C22.045,18.564,22.959,17.987,23.921,17.38z"/>
<path fill="none" d="M25.672,21.45c0-0.473,0-0.885,0-1.309c0.675,0,1.333,0,2.078,0C27.027,20.597,26.375,21.007,25.672,21.45z"/>
<path fill="none" d="M21.975,20.14c0.697,0,1.308,0,1.938,0c0,0.395,0,0.786,0,1.225C23.277,20.962,22.663,20.575,21.975,20.14z"/>
<path fill="none" d="M25.669,15.183c0-0.4,0-0.747,0-1.117c0.567,0,1.138,0,1.771,0C26.835,14.447,26.278,14.799,25.669,15.183z"/>
<path fill="none" d="M23.912,15.085c-0.531-0.342-1.033-0.665-1.596-1.027c0.574,0,1.073,0,1.596,0
	C23.912,14.385,23.912,14.712,23.912,15.085z"/>
<g>
	<g>
		<path d="M16.104,24.845h6.241c0.287,0,0.52-0.233,0.52-0.52v-3.121c0-0.287-0.233-0.52-0.52-0.52h-0.762l-1.839-2.757v-2.539
			c0.441-0.157,0.787-0.503,0.944-0.944h9.458v8.321h-0.521c-0.287,0-0.52,0.232-0.52,0.52v1.04c0,0.287,0.232,0.52,0.52,0.52h1.04
			c0.642,0,1.211,0.385,1.449,0.98l1.141,2.854c0.079,0.197,0.271,0.326,0.482,0.326h0.049c0.286,0,0.52-0.232,0.52-0.52v-5.201
			c0-0.288-0.233-0.52-0.52-0.52h-0.521v-6.677l1.013-3.041c0.007-0.023,0.006-0.046,0.01-0.068
			c0.005-0.028,0.012-0.055,0.013-0.084c0-0.044-0.007-0.084-0.017-0.126c-0.004-0.017,0-0.034-0.006-0.051
			c-0.002-0.005-0.006-0.008-0.008-0.015c-0.018-0.047-0.044-0.087-0.072-0.128c-0.01-0.013-0.017-0.029-0.027-0.041
			c-0.032-0.036-0.074-0.066-0.118-0.091c-0.013-0.008-0.022-0.02-0.037-0.027l-2.079-1.039c-0.071-0.035-0.15-0.054-0.231-0.054
			H17.144c-0.287,0-0.52,0.233-0.52,0.52v2.081c0,0.287,0.233,0.52,0.52,0.52h0.616c0.157,0.441,0.503,0.787,0.944,0.944v2.539
			l-1.839,2.757h-0.761c-0.287,0-0.52,0.233-0.52,0.52v3.121C15.584,24.611,15.817,24.845,16.104,24.845z M19.224,19.021
			l1.109,1.664h-2.217L19.224,19.021z M37.316,31.285c-0.099-0.127-0.249-0.2-0.41-0.2h-3.807l-1.949-4.874
			c-0.079-0.197-0.271-0.326-0.483-0.326h-6.241c-0.286,0-0.52,0.233-0.52,0.52v4.681h-2.08v-1.56c0-0.287-0.233-0.521-0.52-0.521
			h-2.601v-0.52c0-0.287-0.233-0.521-0.52-0.521h-3.121c-0.287,0-0.52,0.233-0.52,0.521v2.6h-0.52c-0.239,0-0.447,0.162-0.505,0.395
			l-1.04,4.16c-0.04,0.155-0.004,0.32,0.095,0.446c0.099,0.127,0.25,0.2,0.41,0.2h18.594c2.764,0,5.162-1.873,5.832-4.555
			C37.449,31.576,37.416,31.411,37.316,31.285z M22.345,34.726c-0.573,0-1.041-0.467-1.041-1.039c0-0.573,0.467-1.041,1.041-1.041
			c0.573,0,1.04,0.468,1.04,1.041C23.385,34.259,22.918,34.726,22.345,34.726z M28.586,34.726c-0.573,0-1.041-0.467-1.041-1.039
			c0-0.573,0.468-1.041,1.041-1.041c0.572,0,1.04,0.468,1.04,1.041C29.626,34.259,29.158,34.726,28.586,34.726z M24.945,31.085
			v-4.16h5.369l1.664,4.16H24.945z"/>
	</g>
</g>
</svg>
