<?xml version="1.0" encoding="utf-8"?>
<!-- Generator: Adobe Illustrator 16.0.0, SVG Export Plug-In . SVG Version: 6.00 Build 0)  -->
<!DOCTYPE svg PUBLIC "-//W3C//DTD SVG 1.1//EN" "http://www.w3.org/Graphics/SVG/1.1/DTD/svg11.dtd">
<svg version="1.1" id="Layer_1" xmlns="http://www.w3.org/2000/svg" xmlns:xlink="http://www.w3.org/1999/xlink" x="0px" y="0px"
	 width="49.891px" height="50px" viewBox="0 0 49.891 50" enable-background="new 0 0 49.891 50" xml:space="preserve">
<circle fill="#FFFFFF" stroke="#231F20" stroke-width="2" cx="24.836" cy="25.198" r="20.7"/>
<path fill="none" d="M25.967,29.875c1.612-0.996,3.178-1.963,4.795-2.962c0.495,2.28,0.984,4.526,1.487,6.843
	C30.128,32.445,28.068,31.173,25.967,29.875z"/>
<path fill="none" d="M18.913,26.913c1.613,0.997,3.182,1.965,4.796,2.962c-2.093,1.292-4.153,2.564-6.283,3.881
	C17.928,31.439,18.416,29.197,18.913,26.913z"/>
<path fill="none" d="M20.708,20.66c1.05,0.663,2.062,1.304,3.104,1.962c-1.372,0.864-2.707,1.704-4.091,2.575
	C20.056,23.657,20.378,22.177,20.708,20.66z"/>
<path fill="none" d="M28.974,20.688c0.327,1.507,0.643,2.953,0.978,4.491c-1.387-0.875-2.698-1.704-4.049-2.556
	C26.934,21.974,27.932,21.345,28.974,20.688z"/>
<path fill="none" d="M30.233,26.742c-1.508,0-3.017,0-4.55,0c0-0.962,0-1.928,0-2.938c1.538,0.971,3.054,1.928,4.567,2.885
	C30.246,26.707,30.24,26.725,30.233,26.742z"/>
<path fill="none" d="M23.919,23.871c0,0.988,0,1.921,0,2.874c-1.493,0-2.974,0-4.451,0c-0.008-0.019-0.017-0.036-0.024-0.054
	C20.919,25.761,22.395,24.831,23.919,23.871z"/>
<path fill="none" d="M25.666,28.666c0-0.823,0-1.58,0-2.359c1.248,0,2.486,0,3.817,0C28.184,27.109,26.949,27.872,25.666,28.666z"/>
<path fill="none" d="M23.92,26.302c0,0.765,0,1.507,0,2.308c-1.246-0.77-2.456-1.516-3.737-2.308
	C21.478,26.302,22.685,26.302,23.92,26.302z"/>
<path fill="none" d="M25.671,9.63c0.309,0,0.585,0,0.896,0c0.206,0.947,0.412,1.896,0.626,2.876c-0.528,0-1.02,0-1.522,0
	C25.671,11.549,25.671,10.605,25.671,9.63z"/>
<path fill="none" d="M21.952,14.931c0.691,0.448,1.341,0.866,2.031,1.313c-0.901,0.569-1.756,1.108-2.683,1.692
	C21.526,16.9,21.734,15.938,21.952,14.931z"/>
<path fill="none" d="M25.716,16.25c0.692-0.436,1.339-0.842,2.018-1.27c0.217,0.994,0.426,1.95,0.648,2.984
	C27.47,17.377,26.617,16.829,25.716,16.25z"/>
<path fill="none" d="M23.917,12.517c-0.48,0-0.938,0-1.438,0c0.209-0.965,0.413-1.914,0.622-2.878c0.271,0,0.535,0,0.814,0
	C23.917,10.595,23.917,11.54,23.917,12.517z"/>
<path fill="none" d="M28.551,19.184c-1.005,0-1.925,0-2.868,0c0-0.596,0-1.197,0-1.848C26.626,17.944,27.554,18.542,28.551,19.184z"
	/>
<path fill="none" d="M23.921,17.38c0,0.626,0,1.2,0,1.797c-0.92,0-1.84,0-2.848,0C22.045,18.564,22.959,17.987,23.921,17.38z"/>
<path fill="none" d="M25.672,21.45c0-0.473,0-0.885,0-1.309c0.675,0,1.333,0,2.078,0C27.027,20.597,26.375,21.007,25.672,21.45z"/>
<path fill="none" d="M21.975,20.14c0.697,0,1.309,0,1.938,0c0,0.395,0,0.786,0,1.225C23.277,20.962,22.663,20.575,21.975,20.14z"/>
<path fill="none" d="M25.669,15.183c0-0.4,0-0.747,0-1.117c0.566,0,1.138,0,1.771,0C26.835,14.447,26.278,14.799,25.669,15.183z"/>
<path fill="none" d="M23.912,15.085c-0.531-0.342-1.033-0.665-1.597-1.027c0.574,0,1.073,0,1.597,0
	C23.912,14.385,23.912,14.712,23.912,15.085z"/>
<g>
	<path fill-rule="evenodd" clip-rule="evenodd" d="M10.629,24.796c0.245,0,0.469-0.002,0.693,0.001
		c0.202,0.002,0.25,0.083,0.25,0.425c0.001,1.003,0,2.008,0,3.012c0,0.1,0,0.2,0,0.341c0.093,0,0.178,0,0.263,0
		c0.405,0,0.405,0,0.405,0.687c0,0.474,0,0.949,0,1.443c1.139,0,2.271,0,3.423,0c0-0.096,0-0.193,0-0.29
		c0-0.768,0.002-1.533-0.001-2.3c-0.001-0.256,0.065-0.372,0.215-0.372c0.658,0.001,1.316-0.004,1.974,0.003
		c0.181,0.001,0.221,0.074,0.222,0.38c0.001,0.793,0.002,1.588-0.001,2.383c0,0.182,0.033,0.258,0.123,0.211
		c0.042-0.271,0.052-0.561,0.137-0.76c0.044-0.104,0.228-0.083,0.342-0.055c0.312,0.077,0.114,0.521,0.212,0.82
		c0.03,0,0.088,0,0.144,0c0.604,0,1.208,0,1.811,0c0.232,0.001,0.281,0.082,0.282,0.46c0,0.347,0,0.691,0,1.086
		c0.108,0,0.211,0,0.312,0c0.29,0,0.58,0,0.871,0c0.25,0,0.259,0.014,0.308,0.415c0.004,0.036,0.028,0.063,0.085,0.086
		c0-0.101,0-0.2,0-0.301c0-3.425,0-6.847,0.001-10.271c0-0.149,0.015-0.298,0.028-0.495c-0.169-0.146-0.366-0.316-0.569-0.492
		c0.13-0.125,0.245-0.245,0.366-0.342c0.034-0.027,0.095-0.004,0.134,0.028c0.431,0.363,0.859,0.733,1.289,1.098
		c0.12,0.103,0.153,0.246,0.09,0.449c-0.061,0.198-0.148,0.254-0.27,0.147c-0.168-0.147-0.34-0.289-0.528-0.45
		c0,3.56,0,7.083,0,10.622c0.042,0.005,0.079,0.015,0.117,0.014c0.144-0.004,0.21,0.11,0.206,0.352
		c-0.002,0.338-0.002,0.676,0,1.014c0.004,0.258-0.07,0.368-0.22,0.359c-0.039-0.002-0.077,0-0.115,0c-2.979,0-5.957,0-8.934,0
		c-1.457-0.271-2.918-0.047-4.375-0.131c-0.172-0.01-0.345-0.113-0.509-0.215c-0.048-0.03-0.09-0.203-0.091-0.312
		c-0.007-0.839-0.005-1.68-0.003-2.521c0-0.284,0.056-0.374,0.225-0.383c0.065-0.002,0.129,0,0.206,0c0-2.873,0-5.723,0-8.617
		C9.65,22.41,9.57,22.478,9.489,22.547c-0.179,0.152-0.257,0.128-0.328-0.104c-0.066-0.22-0.034-0.334,0.139-0.483
		c0.257-0.221,0.515-0.441,0.772-0.661c2.081-1.782,4.166-3.557,6.241-5.358c0.218-0.189,0.37-0.182,0.581,0.01
		c0.679,0.615,1.372,1.187,2.059,1.775c0.053,0.046,0.104,0.095,0.157,0.14c-0.189,0.552-0.211,0.563-0.528,0.292
		c-0.618-0.53-1.238-1.056-1.854-1.593c-0.093-0.082-0.164-0.08-0.257,0.001c-1.903,1.635-3.808,3.265-5.714,4.89
		c-0.094,0.081-0.132,0.162-0.131,0.35C10.633,22.79,10.629,23.774,10.629,24.796z"/>
	<path fill-rule="evenodd" clip-rule="evenodd" d="M18.423,25.466c-0.584-0.238-1.034-0.484-1.271-1.049
		c-0.228-0.543-0.568-1.039-0.835-1.567c-0.079-0.159-0.11-0.36-0.107-0.541c0.005-0.364,0.073-0.729,0.07-1.093
		c-0.005-0.667,0.436-0.879,0.905-0.89c0.418-0.01,0.84,0.018,1.254,0.066c0.494,0.06,0.836-0.073,1.119-0.523
		c1.003-1.607,2.048-3.193,3.073-4.79c0.061-0.094,0.096-0.212,0.117-0.323c0.128-0.624,0.465-0.952,1.098-1.054
		c0.487-0.079,1.274,0.381,1.322,0.882c0.047,0.503,0.354,0.816,0.616,1.166c0.854,1.146,1.765,2.253,2.597,3.417
		c0.598,0.833,1.115,1.725,1.651,2.602c0.535,0.881,1.046,1.776,1.577,2.659c0.062,0.103,0.184,0.209,0.296,0.234
		c0.328,0.071,0.568,0.264,0.779,0.499c0.152,0.169,0.246,0.12,0.296-0.061c0.122-0.427,0.23-0.859,0.339-1.292
		c0.12-0.485,0.518-0.809,1.003-0.809c0.958-0.001,1.917-0.001,2.875,0c0.4,0,0.833,0.413,0.895,0.8
		c0.124,0.757,0.272,1.51,0.406,2.267c0.085,0.475,0.164,0.952,0.247,1.428c0.02,0.104,0.046,0.205,0.072,0.324
		c0.399,0,0.792-0.001,1.184,0.001c0.482,0.004,0.822,0.346,0.826,0.833c0.001,0.219,0.002,0.438,0,0.657
		c-0.006,0.429-0.376,0.801-0.802,0.81c-0.089,0.002-0.178,0.001-0.289,0.001c0.002,0.32,0.05,0.67-0.389,0.707
		c-0.236,0.021-0.362-0.188-0.398-0.636c-3.308,0-6.617,0-9.954,0c0,0.083,0.006,0.164-0.002,0.242
		c-0.019,0.225-0.189,0.393-0.4,0.397c-0.222,0.006-0.407-0.168-0.418-0.407c-0.023-0.486,0.232-0.988,0.968-1.035
		c0.013-0.074,0.026-0.152,0.045-0.255c-0.134,0-0.268,0.003-0.399-0.001c-0.299-0.008-0.504-0.215-0.506-0.509
		c-0.001-0.385,0-0.768,0-1.15c0-0.402,0.198-0.651,0.594-0.739c0.274-0.062,0.554-0.111,0.829-0.174
		c0.062-0.015,0.151-0.06,0.166-0.108c0.08-0.282,0.188-0.539,0.028-0.859c-0.793-1.6-1.555-3.214-2.33-4.822
		c-0.06-0.121-0.141-0.233-0.222-0.343c-1.019-1.357-2.039-2.713-3.06-4.068c-0.028-0.037-0.059-0.069-0.105-0.124
		c-0.05,0.058-0.101,0.105-0.142,0.161c-1.016,1.415-2.037,2.828-3.039,4.253c-0.146,0.206-0.236,0.466-0.298,0.716
		c-0.211,0.828-0.884,1.174-1.676,0.841c-0.042-0.018-0.085-0.034-0.158-0.062c-0.099,0.356-0.196,0.702-0.293,1.05
		c-0.136,0.481-0.282,0.962-0.4,1.449c-0.027,0.111,0.031,0.247,0.067,0.367C18.286,25.146,18.349,25.277,18.423,25.466z
		 M33.482,27.303c0.832,0,1.63,0,2.441,0c0.027-0.297,0.055-0.576,0.079-0.857c0.027-0.327,0.137-0.433,0.464-0.437
		c0.333-0.002,0.666,0,1.014,0c-0.129-0.753-0.253-1.467-0.377-2.191c-0.904,0-1.778-0.004-2.653,0.005
		c-0.063,0.001-0.169,0.083-0.184,0.144C34,25.071,33.743,26.181,33.482,27.303z M40.043,29.338c0-0.267,0-0.499,0-0.737
		c-0.729,0-1.443,0-2.154,0c0,0.258,0,0.497,0,0.737C38.615,29.338,39.324,29.338,40.043,29.338z M24.451,14.85
		c0.017-0.239-0.172-0.441-0.427-0.463c-0.241-0.02-0.489,0.204-0.507,0.458c-0.019,0.248,0.186,0.475,0.442,0.491
		C24.241,15.353,24.431,15.164,24.451,14.85z M19.731,20.938c-0.333-0.019-0.368,0.18-0.391,0.321
		c-0.027,0.167,0.11,0.251,0.274,0.267c0.241,0.025,0.312-0.174,0.317-0.325C19.934,21.1,19.776,20.992,19.731,20.938z"/>
	<path fill-rule="evenodd" clip-rule="evenodd" d="M39.399,34.55c-0.231-0.058-0.394-0.113-0.559-0.138
		c-0.132-0.02-0.284-0.044-0.402,0.002c-0.328,0.122-0.642,0.122-0.97,0.001c-0.111-0.043-0.264-0.052-0.375-0.012
		c-0.371,0.129-0.724,0.172-1.091-0.026c-0.076-0.041-0.213-0.004-0.308,0.033c-0.343,0.136-0.677,0.13-1.024,0.002
		c-0.111-0.04-0.265-0.051-0.373-0.008c-0.347,0.136-0.676,0.137-1.021-0.001c-0.102-0.042-0.245-0.038-0.35,0
		c-0.372,0.135-0.727,0.171-1.09-0.028c-0.071-0.039-0.199-0.013-0.285,0.023c-0.36,0.155-0.712,0.15-1.072,0
		c-0.069-0.03-0.17-0.032-0.242-0.005c-0.424,0.162-0.836,0.092-1.265,0.01c-0.232-0.043-0.495,0.099-0.74,0.084
		c-0.259-0.015-0.513-0.112-0.768-0.177c-0.199-0.051-0.405-0.085-0.592-0.165c-0.435-0.188-0.493-0.615-0.616-1.007
		c-0.105-0.33-0.189-0.665-0.045-0.99c0.084-0.184,0.281-0.314,0.39-0.491c0.207-0.334,0.471-0.578,0.866-0.638
		c0.132-0.019,0.275,0.025,0.413,0.036c0.131,0.011,0.29,0.068,0.389,0.017c0.365-0.196,0.706-0.202,1.068,0.003
		c0.079,0.046,0.229,0.037,0.312-0.009c0.353-0.195,0.688-0.19,1.047-0.003c0.091,0.048,0.251,0.028,0.354-0.018
		c0.354-0.155,0.691-0.154,1.042,0.003c0.099,0.045,0.253,0.073,0.333,0.027c0.372-0.208,0.726-0.215,1.093,0.007
		c0.072,0.041,0.212,0.034,0.289-0.009c0.36-0.206,0.704-0.204,1.065,0.002c0.079,0.046,0.227,0.035,0.313-0.01
		c0.364-0.185,0.718-0.18,1.085-0.007c0.094,0.046,0.247,0.054,0.334,0.007c0.356-0.195,0.69-0.192,1.047-0.002
		c0.088,0.046,0.242,0.043,0.33-0.005c0.349-0.184,0.677-0.175,1.026-0.006c0.098,0.046,0.25,0.042,0.354,0.001
		c0.44-0.164,0.872-0.052,1.173,0.326c0.062,0.08,0.129,0.167,0.214,0.211c0.585,0.304,0.602,0.817,0.445,1.341
		c-0.077,0.263,0.042,0.564-0.197,0.796c-0.204,0.199-0.345,0.46-0.692,0.451c-0.121-0.002-0.247,0.093-0.37,0.145
		C39.744,34.403,39.555,34.485,39.399,34.55z M28.031,31.659c-0.175,0.062-0.435,0.15-0.69,0.251c-0.107,0.04-0.271,0.082-0.3,0.161
		c-0.1,0.28-0.155,0.575-0.214,0.868c-0.011,0.056,0.036,0.139,0.082,0.186c0.201,0.202,0.409,0.399,0.622,0.588
		c0.044,0.041,0.137,0.069,0.188,0.052c0.351-0.123,0.693-0.152,1.043,0.008c0.083,0.038,0.209,0.036,0.295,0.003
		c0.369-0.142,0.726-0.157,1.096,0.001c0.092,0.041,0.231,0.041,0.322-0.001c0.36-0.164,0.71-0.135,1.071-0.006
		c0.096,0.033,0.224,0.034,0.319,0c0.361-0.128,0.71-0.162,1.07,0.007c0.074,0.035,0.189,0.032,0.269,0.003
		c0.377-0.143,0.744-0.167,1.121-0.001c0.084,0.038,0.213,0.038,0.296,0c0.369-0.164,0.728-0.145,1.097-0.004
		c0.088,0.032,0.209,0.034,0.296,0.001c0.368-0.142,0.726-0.158,1.095,0.001c0.083,0.037,0.207,0.026,0.294-0.007
		c0.373-0.141,0.734-0.141,1.104,0.002c0.088,0.034,0.217,0.045,0.296,0.004c0.34-0.168,0.677-0.119,1.022-0.036
		c0.05,0.012,0.13,0,0.163-0.035c0.206-0.211,0.406-0.426,0.595-0.651c0.04-0.047,0.048-0.147,0.03-0.215
		c-0.074-0.282-0.156-0.562-0.249-0.84c-0.017-0.05-0.081-0.105-0.137-0.121c-0.18-0.048-0.365-0.08-0.55-0.115
		c-0.197-0.039-0.42-0.147-0.591-0.094c-0.396,0.128-0.766,0.141-1.151-0.008c-0.07-0.026-0.172-0.026-0.241,0
		c-0.38,0.151-0.75,0.151-1.13,0.002c-0.078-0.031-0.191-0.037-0.268-0.003c-0.376,0.155-0.74,0.158-1.118,0.001
		c-0.089-0.036-0.212,0.002-0.319,0.019c-0.11,0.02-0.221,0.083-0.327,0.076c-0.259-0.019-0.512-0.067-0.768-0.1
		c-0.073-0.009-0.154-0.021-0.219,0.002c-0.393,0.147-0.781,0.167-1.175,0c-0.069-0.028-0.173-0.028-0.243,0
		c-0.373,0.161-0.739,0.157-1.115,0.003c-0.089-0.036-0.214,0.005-0.318,0.021c-0.104,0.018-0.204,0.08-0.303,0.073
		c-0.265-0.021-0.53-0.068-0.796-0.099c-0.079-0.01-0.163-0.003-0.242,0.009c-0.203,0.027-0.405,0.087-0.606,0.089
		C28.536,31.755,28.328,31.7,28.031,31.659z"/>
	<path fill-rule="evenodd" clip-rule="evenodd" fill="#FFFFFF" d="M33.482,27.303c0.262-1.122,0.519-2.232,0.784-3.336
		c0.015-0.061,0.12-0.142,0.184-0.144c0.875-0.009,1.749-0.005,2.653-0.005c0.124,0.725,0.248,1.438,0.377,2.191
		c-0.348,0-0.681-0.002-1.014,0c-0.327,0.004-0.437,0.109-0.464,0.437c-0.024,0.281-0.052,0.561-0.079,0.857
		C35.112,27.303,34.314,27.303,33.482,27.303z"/>
	<path fill-rule="evenodd" clip-rule="evenodd" fill="#FFFFFF" d="M40.043,29.338c-0.719,0-1.428,0-2.154,0c0-0.24,0-0.479,0-0.737
		c0.711,0,1.425,0,2.154,0C40.043,28.839,40.043,29.071,40.043,29.338z"/>
	<path fill-rule="evenodd" clip-rule="evenodd" fill="#FFFFFF" d="M24.451,14.85c-0.02,0.314-0.21,0.503-0.492,0.487
		c-0.256-0.016-0.461-0.244-0.442-0.491c0.019-0.254,0.266-0.478,0.507-0.458C24.279,14.409,24.468,14.611,24.451,14.85z"/>
	<path fill-rule="evenodd" clip-rule="evenodd" fill="#FFFFFF" d="M19.731,20.938c0.044,0.054,0.203,0.162,0.2,0.263
		c-0.005,0.151-0.076,0.351-0.317,0.325c-0.164-0.016-0.301-0.1-0.274-0.267C19.363,21.117,19.398,20.919,19.731,20.938z"/>
	<path fill-rule="evenodd" clip-rule="evenodd" fill="#FFFFFF" d="M28.031,31.659c0.298,0.041,0.506,0.096,0.715,0.095
		c0.201-0.002,0.403-0.062,0.606-0.089c0.079-0.012,0.163-0.019,0.242-0.009c0.266,0.03,0.531,0.078,0.796,0.099
		c0.099,0.007,0.199-0.056,0.303-0.073c0.104-0.017,0.229-0.058,0.318-0.021c0.376,0.154,0.742,0.158,1.115-0.003
		c0.07-0.028,0.174-0.028,0.243,0c0.394,0.167,0.782,0.147,1.175,0c0.064-0.023,0.146-0.011,0.219-0.002
		c0.256,0.032,0.509,0.081,0.768,0.1c0.106,0.007,0.217-0.057,0.327-0.076c0.107-0.017,0.23-0.055,0.319-0.019
		c0.378,0.157,0.742,0.154,1.118-0.001c0.076-0.034,0.189-0.028,0.268,0.003c0.38,0.149,0.75,0.149,1.13-0.002
		c0.069-0.026,0.171-0.026,0.241,0c0.386,0.148,0.755,0.136,1.151,0.008c0.171-0.054,0.394,0.055,0.591,0.094
		c0.185,0.035,0.37,0.067,0.55,0.115c0.056,0.016,0.12,0.071,0.137,0.121c0.093,0.277,0.175,0.558,0.249,0.84
		c0.018,0.067,0.01,0.168-0.03,0.215c-0.188,0.226-0.389,0.44-0.595,0.651c-0.033,0.035-0.113,0.047-0.163,0.035
		c-0.346-0.083-0.683-0.132-1.022,0.036c-0.079,0.041-0.208,0.03-0.296-0.004c-0.369-0.143-0.73-0.143-1.104-0.002
		c-0.087,0.033-0.211,0.044-0.294,0.007c-0.369-0.159-0.727-0.143-1.095-0.001c-0.087,0.033-0.208,0.031-0.296-0.001
		c-0.369-0.141-0.728-0.16-1.097,0.004c-0.083,0.038-0.212,0.038-0.296,0c-0.377-0.166-0.744-0.142-1.121,0.001
		c-0.079,0.029-0.194,0.032-0.269-0.003c-0.36-0.169-0.709-0.135-1.07-0.007c-0.096,0.034-0.224,0.033-0.319,0
		c-0.361-0.129-0.711-0.158-1.071,0.006c-0.091,0.042-0.23,0.042-0.322,0.001c-0.37-0.158-0.727-0.143-1.096-0.001
		c-0.086,0.033-0.212,0.035-0.295-0.003c-0.35-0.16-0.692-0.131-1.043-0.008c-0.051,0.018-0.144-0.011-0.188-0.052
		c-0.213-0.188-0.421-0.386-0.622-0.588c-0.046-0.047-0.093-0.13-0.082-0.186c0.059-0.293,0.114-0.588,0.214-0.868
		c0.029-0.079,0.192-0.121,0.3-0.161C27.596,31.81,27.856,31.721,28.031,31.659z M33.779,33.513c0.311,0,0.621,0,0.933,0
		c1.578,0,3.158,0.001,4.736,0c0.369,0,0.715-0.23,0.828-0.545c0.122-0.338,0.05-0.625-0.301-0.863
		c-0.172-0.117-0.418-0.172-0.629-0.173c-2.62-0.011-5.241-0.008-7.86-0.008c-1.122,0-2.244-0.002-3.368,0.001
		c-0.508,0.002-0.904,0.389-0.875,0.845c0.025,0.419,0.413,0.743,0.896,0.743C30.018,33.514,31.899,33.513,33.779,33.513z"/>
	<path fill-rule="evenodd" clip-rule="evenodd" d="M33.779,33.513c-1.88,0-3.761,0.001-5.641,0c-0.482,0-0.87-0.324-0.896-0.743
		c-0.029-0.456,0.367-0.843,0.875-0.845c1.124-0.003,2.246-0.001,3.368-0.001c2.619,0,5.24-0.003,7.86,0.008
		c0.211,0.001,0.457,0.056,0.629,0.173c0.351,0.238,0.423,0.525,0.301,0.863c-0.113,0.314-0.459,0.545-0.828,0.545
		c-1.578,0.001-3.158,0-4.736,0C34.4,33.513,34.089,33.513,33.779,33.513z M39.484,33.007c0.042-0.001,0.083-0.003,0.125-0.003
		c0.061-0.101,0.169-0.203,0.161-0.298c-0.007-0.083-0.158-0.229-0.221-0.218c-0.097,0.018-0.228,0.141-0.24,0.231
		C39.295,32.807,39.419,32.911,39.484,33.007z M28.169,32.714c0.038-0.175-0.072-0.237-0.224-0.237
		c-0.142,0-0.224,0.067-0.216,0.235c0.007,0.153,0.021,0.258,0.217,0.257C28.131,32.968,28.195,32.893,28.169,32.714z"/>
	<path fill-rule="evenodd" clip-rule="evenodd" fill="#FFFFFF" d="M39.484,33.007c-0.064-0.096-0.188-0.2-0.175-0.287
		c0.013-0.091,0.144-0.214,0.24-0.231c0.062-0.011,0.214,0.135,0.221,0.218c0.008,0.095-0.101,0.197-0.161,0.298
		C39.567,33.004,39.526,33.006,39.484,33.007z"/>
	<path fill-rule="evenodd" clip-rule="evenodd" fill="#FFFFFF" d="M28.169,32.714c0.025,0.179-0.038,0.254-0.223,0.255
		c-0.196,0.001-0.21-0.104-0.217-0.257c-0.008-0.168,0.074-0.235,0.216-0.235C28.097,32.477,28.207,32.539,28.169,32.714z"/>
</g>
</svg>
